<?xml version="1.0" encoding="utf-8"?>
<!-- Generator: Adobe Illustrator 16.0.0, SVG Export Plug-In . SVG Version: 6.00 Build 0)  -->
<!DOCTYPE svg PUBLIC "-//W3C//DTD SVG 1.1//EN" "http://www.w3.org/Graphics/SVG/1.1/DTD/svg11.dtd">
<svg version="1.1" id="Layer_1" xmlns="http://www.w3.org/2000/svg" xmlns:xlink="http://www.w3.org/1999/xlink" x="0px" y="0px"
	 viewBox="0 0 49.627 49.638" enable-background="new 0 0 49.627 49.638" xml:space="preserve">
<g>
	
		<rect x="-7.506" y="23.546" transform="matrix(0.7071 0.7071 -0.7071 0.7071 24.8219 -10.2763)" fill="#02A8AB" width="64.642" height="2.554"/>
	<g>
		<polygon fill="#02A8AB" points="0,15.344 2.648,15.342 2.652,2.664 15.333,2.68 15.333,0.003 0,0.011 		"/>
	</g>
	<g>
		<polygon fill="#02A8AB" points="34.295,49.638 34.295,46.979 46.974,46.985 46.979,34.303 49.627,34.303 49.627,49.638 		"/>
	</g>
</g>
<g>
	
		<rect x="23.538" y="-7.497" transform="matrix(0.7069 0.7073 -0.7073 0.7069 24.8303 -10.2763)" fill="#FFBC1A" width="2.554" height="64.641"/>
	<g>
		<polygon fill="#FFBC1A" points="34.295,0 34.295,2.672 46.974,2.661 46.951,15.344 49.627,15.342 49.627,0.009 		"/>
	</g>
	<g>
		<polygon fill="#FFBC1A" points="0,34.303 2.648,34.305 2.652,46.981 15.333,46.977 15.333,49.638 0,49.635 		"/>
	</g>
</g>
<polygon fill="#027D12" points="24.813,23.019 26.625,24.819 24.813,26.63 23.005,24.819 "/>
</svg>
