<?xml version="1.0" encoding="utf-8"?>
<!-- Generator: Adobe Illustrator 16.0.0, SVG Export Plug-In . SVG Version: 6.00 Build 0)  -->
<!DOCTYPE svg PUBLIC "-//W3C//DTD SVG 1.1//EN" "http://www.w3.org/Graphics/SVG/1.1/DTD/svg11.dtd">
<svg version="1.1" id="Layer_1" xmlns="http://www.w3.org/2000/svg" xmlns:xlink="http://www.w3.org/1999/xlink" x="0px" y="0px"
	 viewBox="0 0 34.308 34.31" enable-background="new 0 0 34.308 34.31" xml:space="preserve">
<polygon fill="#02A8AB" points="32.502,34.31 20.032,21.838 21.839,20.031 34.308,32.467 34.308,34.31 "/>
<polygon fill="#02A8AB" points="12.377,14.185 0,1.805 0,0 1.82,0 14.184,12.379 "/>
<g>
	<polygon fill="#02A8AB" points="18.975,34.31 21.623,34.308 21.627,21.631 34.308,21.626 34.308,18.969 18.975,18.978 	"/>
</g>
<g>
	<polygon fill="#02A8AB" points="0,15.231 0,12.675 12.679,12.683 12.656,0 15.332,0 15.332,15.334 	"/>
</g>
<polygon fill="#FFBC1A" points="20.781,15.334 18.975,13.528 32.495,0 34.308,0 34.308,1.812 "/>
<polygon fill="#FFBC1A" points="1.807,34.31 0,34.31 0,32.503 13.531,18.97 15.337,20.775 "/>
<g>
	<polygon fill="#FFBC1A" points="0,18.966 0,21.522 12.679,21.627 12.656,34.31 15.337,34.308 15.332,18.975 	"/>
</g>
<g>
	<polygon fill="#FFBC1A" points="18.975,0 21.623,0.003 21.627,12.679 34.308,12.674 34.308,15.334 18.975,15.333 	"/>
</g>
</svg>
