<?xml version="1.0" encoding="utf-8"?>
<!-- Generator: Adobe Illustrator 16.0.0, SVG Export Plug-In . SVG Version: 6.00 Build 0)  -->
<!DOCTYPE svg PUBLIC "-//W3C//DTD SVG 1.1//EN" "http://www.w3.org/Graphics/SVG/1.1/DTD/svg11.dtd">
<svg version="1.1" id="Layer_1" xmlns="http://www.w3.org/2000/svg" xmlns:xlink="http://www.w3.org/1999/xlink" x="0px" y="0px"
	 viewBox="0 0 45.275 52.852" enable-background="new 0 0 45.275 52.852" xml:space="preserve">
<g>
	<polygon fill="#02A8AB" points="4.801,46 0,53 45.275,53 39.924,46 	"/>
	<path fill="#FFBC1A" d="M38.573,51h-32v-4.972V0h32v46.028V51z M8.573,49h28v-2.97V2h-28v44.03V49z"/>
	<polygon fill="#FFBC1A" points="31.213,10.571 27.707,7.062 22.173,12.597 16.639,7.062 13.131,10.571 18.665,16.104 
		13.131,21.638 16.639,25.146 22.173,19.613 27.707,25.146 31.213,21.638 25.681,16.104 	"/>
	<polygon fill="#027D12" points="8.573,46 8.573,49 36.573,49 36.573,46 38.573,46 38.573,51 6.573,51 6.573,46 	"/>
</g>
</svg>
