<?xml version="1.0" encoding="utf-8"?>
<!-- Generator: Adobe Illustrator 16.0.0, SVG Export Plug-In . SVG Version: 6.00 Build 0)  -->
<!DOCTYPE svg PUBLIC "-//W3C//DTD SVG 1.1//EN" "http://www.w3.org/Graphics/SVG/1.1/DTD/svg11.dtd">
<svg version="1.1" id="Layer_1" xmlns="http://www.w3.org/2000/svg" xmlns:xlink="http://www.w3.org/1999/xlink" x="0px" y="0px"
	 viewBox="0 0 29.737 52.521" enable-background="new 0 0 29.737 52.521" xml:space="preserve">
<path fill="#027D12" d="M23.314,37.844c0-4.848-3.945-8.795-8.793-8.795c-4.85,0-8.797,3.947-8.797,8.795
	c0,0.076,0.01,0.149,0.012,0.226c-0.002,0.075-0.012,0.15-0.012,0.227c0,4.848,3.947,8.795,8.793,8.795
	c4.852,0,8.797-3.947,8.797-8.795c0-0.074-0.008-0.149-0.01-0.224C23.307,37.997,23.314,37.92,23.314,37.844z"/>
<path fill="#FFBC1A" d="M29.737,37.736c0,2.714-0.927,5.268-2.212,7.458c-2.576,4.401-7.447,7.366-12.9,7.366
	c-5.45,0-10.278-2.965-12.853-7.366C0.485,43.004,0,40.45,0,37.736c0-6.276,4.686-11.646,9.686-13.803V4.043
	c0-0.608-0.535-1.349-1.622-1.349c-0.739,0-1.483-0.606-1.483-1.347C6.58,0.604,7.543,0,8.285,0c2.969,0,4.4,2.419,4.4,4.043v21.873
	c-2,0.206-2.271,0.531-3.12,0.966c-3.283,1.629-5.942,4.708-6.696,8.395c-0.17,0.794-0.361,1.616-0.361,2.46
	c0,6.683,5.384,12.128,12.075,12.128c6.686,0,12.104-5.445,12.104-12.128c0-0.844-0.104-1.666-0.272-2.46
	c-0.76-3.687-2.976-6.766-6.259-8.395c-0.849-0.435-1.471-0.76-2.471-0.966V4.043C17.686,2.419,18.533,0,21.499,0
	c0.741,0,1.233,0.604,1.233,1.348c0,0.74-0.282,1.347-1.021,1.347c-1.087,0-1.025,0.74-1.025,1.362v19.877
	C26.686,26.091,29.737,31.46,29.737,37.736z"/>
<path fill="#02A8AB" d="M23.148,36.624c-0.12,0.018-0.246,0.022-0.384,0.022c-2.197,0-2.197-1.65-2.197-1.65s0-0.548-0.552-0.548
	c-0.549,0-0.549,0.548-0.549,0.548s0,1.65-2.2,1.65c-2.196,0-2.196-1.65-2.196-1.65s0-0.548-0.553-0.548
	c-0.548,0-0.548,0.548-0.548,0.548s0,1.65-2.198,1.65c-2.199,0-2.199-1.65-2.199-1.65s0-0.548-0.549-0.548
	c-0.552,0-0.552,0.548-0.552,0.548s0,1.65-2.198,1.65c-0.139,0-0.263-0.005-0.385-0.022c-0.109,0.55-0.164,1.11-0.164,1.672
	c0,4.848,3.947,8.795,8.793,8.795c4.852,0,8.797-3.947,8.797-8.795C23.314,37.734,23.26,37.174,23.148,36.624z"/>
</svg>
