<?xml version="1.0" encoding="utf-8"?>
<!-- Generator: Adobe Illustrator 16.0.0, SVG Export Plug-In . SVG Version: 6.00 Build 0)  -->
<!DOCTYPE svg PUBLIC "-//W3C//DTD SVG 1.1//EN" "http://www.w3.org/Graphics/SVG/1.1/DTD/svg11.dtd">
<svg version="1.1" id="Layer_1" xmlns="http://www.w3.org/2000/svg" xmlns:xlink="http://www.w3.org/1999/xlink" x="0px" y="0px"
	 viewBox="0 0 82.702 53.725" enable-background="new 0 0 82.702 53.725" xml:space="preserve">
<g>
	<rect fill="#FFBC1A" width="19.318" height="8.725"/>
</g>
<g>
	<rect x="21.253" fill="#02A8AB" width="18.695" height="8.725"/>
</g>
<g>
	<rect x="42.265" fill="#FFBC1A" width="19.32" height="8.725"/>
</g>
<g>
	<rect x="64.007" fill="#02A8AB" width="18.695" height="8.725"/>
</g>
<g>
	<rect y="45" fill="#FFBC1A" width="19.318" height="8.725"/>
</g>
<g>
	<rect x="21.253" y="45" fill="#02A8AB" width="18.695" height="8.725"/>
</g>
<g>
	<rect x="42.265" y="45" fill="#FFBC1A" width="19.32" height="8.725"/>
</g>
<g>
	<rect x="64.007" y="45" fill="#02A8AB" width="18.695" height="8.725"/>
</g>
<g>
	<rect x="9.659" y="11.219" fill="#02A8AB" width="18.695" height="8.725"/>
</g>
<g>
	<rect x="30.224" y="11.219" fill="#FFBC1A" width="18.695" height="8.725"/>
</g>
<g>
	<rect x="51.413" y="11.219" fill="#02A8AB" width="18.695" height="8.725"/>
</g>
<g>
	<rect y="22.436" fill="#FFBC1A" width="19.318" height="8.725"/>
</g>
<g>
	<rect x="21.253" y="22.436" fill="#02A8AB" width="18.695" height="8.725"/>
</g>
<g>
	<rect x="42.265" y="22.436" fill="#FFBC1A" width="19.32" height="8.725"/>
</g>
<g>
	<rect x="64.007" y="22.436" fill="#02A8AB" width="18.695" height="8.725"/>
</g>
<g>
	<rect x="9.659" y="33.652" fill="#02A8AB" width="18.695" height="9.348"/>
</g>
<g>
	<rect x="30.224" y="33.652" fill="#FFBC1A" width="18.695" height="9.348"/>
</g>
<g>
	<rect x="51.413" y="33.652" fill="#02A8AB" width="18.695" height="9.348"/>
</g>
</svg>
