<?xml version="1.0" encoding="utf-8"?>
<!-- Generator: Adobe Illustrator 16.0.0, SVG Export Plug-In . SVG Version: 6.00 Build 0)  -->
<!DOCTYPE svg PUBLIC "-//W3C//DTD SVG 1.1//EN" "http://www.w3.org/Graphics/SVG/1.1/DTD/svg11.dtd">
<svg version="1.1" id="Layer_1" xmlns="http://www.w3.org/2000/svg" xmlns:xlink="http://www.w3.org/1999/xlink" x="0px" y="0px"
	 viewBox="0 0 54 55" enable-background="new 0 0 54 55" xml:space="preserve">
<path fill="#02A8AB" d="M54.161,54.846H0.317V0h53.844V54.846z M1.069,54.094H53.41V0.751H1.069V54.094z"/>
<g>
	<g>
		<path fill="#FFBC1A" d="M4.806,41.199v-0.18c0-4.893,3.428-8.229,8.005-8.229c3.876,0,6.763,1.893,7.145,5.861h-3.741
			c-0.272-1.939-1.354-2.976-3.382-2.976c-2.546,0-4.17,1.983-4.17,5.32v0.181c0,3.336,1.533,5.276,4.193,5.276
			c2.006,0,3.404-1.015,3.697-3.089h3.585c-0.407,3.991-3.27,6.042-7.238,6.042C7.625,49.405,4.806,46.159,4.806,41.199z"/>
		<path fill="#FFBC1A" d="M21.493,44.108h3.494c0.158,1.443,0.767,2.637,3.156,2.637c1.602,0,2.661-0.879,2.661-2.142
			c0-1.285-0.677-1.736-3.044-2.096c-4.125-0.541-5.815-1.781-5.815-4.893c0-2.75,2.299-4.801,5.86-4.801
			c3.631,0,5.749,1.623,6.043,4.824h-3.361c-0.225-1.465-1.08-2.141-2.683-2.141c-1.6,0-2.412,0.743-2.412,1.826
			c0,1.149,0.519,1.691,3,2.051c3.9,0.496,5.905,1.555,5.905,4.892c0,2.863-2.344,5.14-6.154,5.14
			C23.723,49.405,21.695,47.332,21.493,44.108z"/>
		<path fill="#FFBC1A" d="M35.697,44.108h3.495c0.158,1.443,0.768,2.637,3.157,2.637c1.601,0,2.66-0.879,2.66-2.142
			c0-1.285-0.678-1.736-3.043-2.096c-4.126-0.541-5.816-1.781-5.816-4.893c0-2.75,2.299-4.801,5.861-4.801
			c3.629,0,5.749,1.623,6.041,4.824h-3.358c-0.226-1.465-1.083-2.141-2.683-2.141c-1.603,0-2.413,0.743-2.413,1.826
			c0,1.149,0.519,1.691,2.999,2.051c3.9,0.496,5.907,1.555,5.907,4.892c0,2.863-2.345,5.14-6.155,5.14
			C37.93,49.405,35.9,47.332,35.697,44.108z"/>
	</g>
</g>
<path fill="#02A8AB" d="M1,1h52v53H1V1z M0,55h54V0H0V55z"/>
</svg>
