<?xml version="1.0" encoding="utf-8"?>
<!-- Generator: Adobe Illustrator 16.0.0, SVG Export Plug-In . SVG Version: 6.00 Build 0)  -->
<!DOCTYPE svg PUBLIC "-//W3C//DTD SVG 1.1//EN" "http://www.w3.org/Graphics/SVG/1.1/DTD/svg11.dtd">
<svg version="1.1" id="Layer_1" xmlns="http://www.w3.org/2000/svg" xmlns:xlink="http://www.w3.org/1999/xlink" x="0px" y="0px"
	 viewBox="0 0 133.735 111" enable-background="new 0 0 133.735 111" xml:space="preserve">
<g>
	<path fill="#02A8AB" d="M133.709,3.002C133.58,1.275,132.151,0,130.392,0H3.344c-1.76,0-3.189,1.275-3.317,3.002L0,88.75
		C0,90.597,1.496,92,3.344,92h127.048c1.847,0,3.344-1.403,3.344-3.25L133.709,3.002z M128.128,76h-123V5h123V76z"/>
	<path fill="#FFBC1A" d="M88.041,108.235c-5.35-1.338-6.912-5.44-6.912-10.79V96H66.867H52.128v1.445
		c0,5.35-1.324,9.452-6.674,10.79c-1.297,0.323-1.322,2.765,0.014,2.765h21.398h21.398C89.603,111,89.338,108.559,88.041,108.235z"
		/>
</g>
<rect x="49.128" y="21" fill="#02A8AB" width="57" height="15"/>
<rect x="49.128" y="38" fill="#02A8AB" width="28" height="23"/>
<rect x="79.128" y="38" fill="#FFBC1A" width="27" height="23"/>
<rect x="27.128" y="21" fill="#FFBC1A" width="20" height="40"/>
</svg>
