<?xml version="1.0" encoding="utf-8"?>
<!-- Generator: Adobe Illustrator 16.0.0, SVG Export Plug-In . SVG Version: 6.00 Build 0)  -->
<!DOCTYPE svg PUBLIC "-//W3C//DTD SVG 1.1//EN" "http://www.w3.org/Graphics/SVG/1.1/DTD/svg11.dtd">
<svg version="1.1" id="Layer_1" xmlns="http://www.w3.org/2000/svg" xmlns:xlink="http://www.w3.org/1999/xlink" x="0px" y="0px"
	 viewBox="0 0 32.351 23.961" enable-background="new 0 0 32.351 23.961" xml:space="preserve">
<g>
	<path id="email-icon_2_" fill="#FFBC1A" d="M9.466,10.65L0,3.38v16.734L9.466,10.65z M32.265,0H0.111l16.064,12.34L32.265,0z
		 M20.678,12.35l-4.503,3.454l-4.511-3.466L0.041,23.961h32.25L20.678,12.35z M22.878,10.662l9.473,9.473V3.398L22.878,10.662z"/>
</g>
<g>
	<path fill="#02A8AB" d="M235.429,123.102v-4.651c0-1.033-0.837-1.871-1.87-1.871c-1.035,0-1.871,0.838-1.871,1.871v4.503h-8.73
		c-3.101,0-5.612,2.511-5.612,5.61v33.675c0,3.101,2.512,5.613,5.612,5.613h11.227c3.102,0,5.613-2.513,5.613-5.613v-33.675
		C239.797,125.895,237.929,123.67,235.429,123.102z M224.829,162.047c0,0.517-0.42,0.935-0.936,0.935h-1.872
		c-0.517,0-0.934-0.418-0.934-0.935v-1.872c0-0.516,0.417-0.935,0.934-0.935h1.872c0.516,0,0.936,0.419,0.936,0.935V162.047z
		 M224.829,156.064c0,0.515-0.42,0.934-0.936,0.934h-1.872c-0.517,0-0.934-0.419-0.934-0.934v-1.872c0-0.52,0.417-0.936,0.934-0.936
		h1.872c0.516,0,0.936,0.416,0.936,0.936V156.064z M224.829,150.079c0,0.517-0.42,0.936-0.936,0.936h-1.872
		c-0.517,0-0.934-0.419-0.934-0.936v-1.872c0-0.517,0.417-0.935,0.934-0.935h1.872c0.516,0,0.936,0.418,0.936,0.935V150.079z
		 M230.441,162.047c0,0.517-0.418,0.935-0.935,0.935h-1.872c-0.518,0-0.934-0.418-0.934-0.935v-1.872
		c0-0.516,0.416-0.935,0.934-0.935h1.872c0.517,0,0.935,0.419,0.935,0.935V162.047z M230.441,156.064
		c0,0.515-0.418,0.934-0.935,0.934h-1.872c-0.518,0-0.934-0.419-0.934-0.934v-1.872c0-0.52,0.416-0.936,0.934-0.936h1.872
		c0.517,0,0.935,0.416,0.935,0.936V156.064z M230.441,150.079c0,0.517-0.418,0.936-0.935,0.936h-1.872
		c-0.518,0-0.934-0.419-0.934-0.936v-1.872c0-0.517,0.416-0.935,0.934-0.935h1.872c0.517,0,0.935,0.418,0.935,0.935V150.079z
		 M236.054,162.047c0,0.517-0.419,0.935-0.935,0.935h-1.871c-0.517,0-0.937-0.418-0.937-0.935v-1.872
		c0-0.516,0.42-0.935,0.937-0.935h1.871c0.516,0,0.935,0.419,0.935,0.935V162.047z M236.054,156.064
		c0,0.515-0.419,0.934-0.935,0.934h-1.871c-0.517,0-0.937-0.419-0.937-0.934v-1.872c0-0.52,0.42-0.936,0.937-0.936h1.871
		c0.516,0,0.935,0.416,0.935,0.936V156.064z M236.054,150.079c0,0.517-0.419,0.936-0.935,0.936h-1.871
		c-0.517,0-0.937-0.419-0.937-0.936v-1.872c0-0.517,0.42-0.935,0.937-0.935h1.871c0.516,0,0.935,0.418,0.935,0.935V150.079z
		 M236.054,141.106c0,1.033-0.838,1.871-1.87,1.871h-11.227c-1.032,0-1.869-0.838-1.869-1.871v-11.225
		c0-1.035,0.837-1.871,1.869-1.871h11.227c1.032,0,1.87,0.836,1.87,1.871V141.106z"/>
</g>
</svg>
