<?xml version="1.0" encoding="utf-8"?>
<!-- Generator: Adobe Illustrator 16.0.0, SVG Export Plug-In . SVG Version: 6.00 Build 0)  -->
<!DOCTYPE svg PUBLIC "-//W3C//DTD SVG 1.1//EN" "http://www.w3.org/Graphics/SVG/1.1/DTD/svg11.dtd">
<svg version="1.1" id="Layer_1" xmlns="http://www.w3.org/2000/svg" xmlns:xlink="http://www.w3.org/1999/xlink" x="0px" y="0px"
	 viewBox="0 0 60.527 40" enable-background="new 0 0 60.527 40" xml:space="preserve">
<g>
	<g>
		<g id="Head_2_">
			<path fill="#02A8AB" d="M16.842,0C7.541,0,0,7.539,0,16.842s7.54,16.842,16.842,16.842c9.304,0,16.844-7.539,16.844-16.842
				S26.146,0,16.842,0L16.842,0z"/>
		</g>
		<path id="Smile_10_" fill="#027D12" d="M23.392,22.68c-0.589,2.646-3.329,4.646-6.622,4.646c-3.29,0-6.031-2.002-6.618-4.648
			L23.392,22.68z"/>
		<circle id="Eye_22_" fill="#027D12" cx="11.99" cy="13.594" r="2.68"/>
		<circle id="Eye_19_" fill="#027D12" cx="21.695" cy="13.595" r="2.679"/>
	</g>
	<g>
		<g id="Head_1_">
			<path fill="#FFBC1A" d="M43.686,6.314c-9.302,0-16.844,7.541-16.844,16.844C26.842,32.459,34.384,40,43.686,40
				s16.842-7.541,16.842-16.842C60.527,13.855,52.987,6.314,43.686,6.314L43.686,6.314z"/>
		</g>
		<path id="Smile_1_" fill="#027D12" d="M50.234,28.689c-0.589,3-3.33,4.648-6.621,4.648c-3.292,0-6.033-1.648-6.619-4.648H50.234z"
			/>
		<circle id="Eye_9_" fill="#027D12" cx="38.832" cy="19.91" r="2.68"/>
		<circle id="Eye_1_" fill="#027D12" cx="48.537" cy="19.911" r="2.679"/>
	</g>
	<path fill="#027D12" d="M26.873,23.191c0,2.211,0.43,4.32,1.205,6.254c3.458-3.084,5.638-7.572,5.638-12.57
		c0-2.211-0.431-4.32-1.206-6.254C29.052,13.705,26.873,18.193,26.873,23.191z"/>
</g>
</svg>
