<?xml version="1.0" encoding="utf-8"?>
<!-- Generator: Adobe Illustrator 16.0.0, SVG Export Plug-In . SVG Version: 6.00 Build 0)  -->
<!DOCTYPE svg PUBLIC "-//W3C//DTD SVG 1.1//EN" "http://www.w3.org/Graphics/SVG/1.1/DTD/svg11.dtd">
<svg version="1.1" id="Layer_1" xmlns="http://www.w3.org/2000/svg" xmlns:xlink="http://www.w3.org/1999/xlink" x="0px" y="0px"
	 viewBox="0 0 48.898 36.528" enable-background="new 0 0 48.898 36.528" xml:space="preserve">
<path fill="#FFBC1A" d="M41.417,6.398c-0.08-1.533-1.345-2.553-2.879-2.553H15L14.02,0h-8.1L4.942,3.845H2.883
	c-0.79,0-1.547,0.083-2.091,0.658C0.248,5.076-0.039,5.728,0.004,6.517L1.4,33.613c0.081,1.533,1.347,2.915,2.88,2.915h35.656
	c0.791,0,1.547-0.565,2.092-1.139c0.543-0.574,0.829-1.465,0.788-2.256L41.417,6.398z"/>
<path fill="#02A8AB" d="M46.018,8.651h-0.006H10.358C9,8.651,7.83,9.356,7.54,10.682L2.728,32.67
	c-0.187,0.854,0.023,1.924,0.571,2.604c0.547,0.678,1.373,1.253,2.246,1.253H41.2c1.354,0,2.528-1.186,2.817-2.511l4.786-22.104
	c0.062-0.235,0.095-0.303,0.095-0.559C48.898,9.763,47.61,8.651,46.018,8.651z"/>
<path fill="#027D12" d="M42.774,33.134l-1.28-24.482H10.317c-1.357,0-2.53,0.705-2.818,2.03L2.687,32.67
	c-0.187,0.854,0.024,1.924,0.572,2.604c0.546,0.678,1.372,1.253,2.245,1.253h34.39c0.79,0,1.548-0.565,2.093-1.139
	C42.532,34.815,42.816,33.924,42.774,33.134z"/>
</svg>
