<?xml version="1.0" encoding="utf-8"?>
<!-- Generator: Adobe Illustrator 16.0.0, SVG Export Plug-In . SVG Version: 6.00 Build 0)  -->
<!DOCTYPE svg PUBLIC "-//W3C//DTD SVG 1.1//EN" "http://www.w3.org/Graphics/SVG/1.1/DTD/svg11.dtd">
<svg version="1.1" id="Layer_1" xmlns="http://www.w3.org/2000/svg" xmlns:xlink="http://www.w3.org/1999/xlink" x="0px" y="0px"
	 viewBox="0 0 300.693 300.693" enable-background="new 0 0 300.693 300.693"
	 xml:space="preserve">
<path fill="#02A8AB" d="M131.844,170.77c6.471,6.584,12.105,13.55,16.861,20.684c-13.008,7.85-26.01,15.055-38.473,21.264
	c-2.516-3.922-5.518-7.738-8.996-11.341L131.844,170.77L131.844,170.77z M293.576,185.281c-1.728,6.287-3.994,12.157-6.738,17.621
	c0.963-6.471,1.264-13.23,0.913-20.201c3.79-5.502,6.808-11.338,8.944-17.479c-0.158,2.657-0.42,5.274-0.796,7.86l0.104,0.01
	C295.37,177.184,294.559,181.25,293.576,185.281L293.576,185.281z M282.242,211.008c-6.939,10.869-15.965,19.875-26.496,27.084
	c2.314-8.687,3.295-18.033,2.984-27.781c10.428-6.955,19.348-14.913,26.225-23.797C285.105,195.105,284.209,203.329,282.242,211.008
	L282.242,211.008z M252,240.539c-10.219,6.374-21.701,11.178-33.971,14.461c1.914-7.939,2.494-16.556,1.816-25.592
	c6.318-2.244,12.419-4.753,18.246-7.502c6.264-2.96,12.209-6.205,17.764-9.727C256.015,222.213,254.742,231.758,252,240.539
	L252,240.539z M214.805,255.821c-2.176,0.526-4.365,1.01-6.578,1.444c-12.858,2.531-26.396,3.504-40.123,2.998
	c1.58-5.91,2.164-12.322,1.787-19.053c16.281-2.109,32.24-5.752,47.094-10.805C217.588,239.426,216.887,247.992,214.805,255.821
	L214.805,255.821z M165.112,260.129c-8.274-0.437-16.604-1.405-24.878-2.9c-7.513-1.357-14.988-3.157-22.33-5.371
	c0.969-2.853,1.504-5.925,1.618-9.145c15.614,1.141,31.669,0.721,47.462-1.142C167.332,248.158,166.723,254.406,165.112,260.129
	L165.112,260.129z M115.102,250.992c-12.003-3.816-23.641-8.766-34.537-14.801c3.848,1.053,7.771,1.993,11.756,2.809
	c7.885,1.617,16.015,2.765,24.283,3.477C116.502,245.493,116.014,248.353,115.102,250.992L115.102,250.992z M58.869,221.903
	c-8.572-6.679-16.363-14.181-23.136-22.486c0.722-2.039,1.692-3.948,2.915-5.676C44.324,203.42,51.081,212.867,58.869,221.903
	L58.869,221.903z M33.631,196.764c-8.627-11.155-15.427-23.688-19.835-37.527c1.593-3.935,3.722-7.553,6.411-10.772
	c3.396,14.259,9.029,28.604,16.859,42.516C35.662,192.74,34.52,194.686,33.631,196.764L33.631,196.764z M12.514,154.954
	c-3.195-11.51-4.75-23.891-4.368-37.097c0.2-0.498,0.401-0.988,0.611-1.474c2.155-4.948,4.964-9.497,8.444-13.554
	c-1.139,9.716-1.074,19.779,0.174,29.986c0.497,4.021,1.178,8.073,2.039,12.129C16.621,147.953,14.332,151.309,12.514,154.954
	L12.514,154.954z M8.585,110.141l0.038-0.43C11.541,99.478,15.6,89.498,20.772,79.97l0.206,0.116
	c1.057-1.899,2.204-3.744,3.424-5.516c-3.025,7.388-5.18,15.166-6.489,23.205l-0.132,0.132l0.005,0.003
	C14.125,101.572,11.064,105.674,8.585,110.141L8.585,110.141z M5.362,126.668c0.397,11.459,2.251,22.266,5.358,32.394
	c-1.869,4.925-2.967,10.284-3.311,15.949c-1.67-4.216-3.033-8.657-4.043-13.325c-0.284-3.771-0.441-7.553-0.441-11.336
	c0-4.385,0.199-8.773,0.592-13.141l0.169,0.015C3.998,133.588,4.553,130.063,5.362,126.668L5.362,126.668z M12.253,163.705
	c4.703,13.363,11.61,25.49,20.22,36.307c-0.737,2.553-1.148,5.262-1.238,8.086c-8.693-7.499-15.846-16.371-20.984-26.703
	C10.025,175.121,10.68,169.164,12.253,163.705L12.253,163.705z M34.786,202.844c6.936,8.248,14.872,15.697,23.556,22.323
	c-8.844-4.039-16.984-8.905-24.177-14.636C34.068,207.854,34.281,205.276,34.786,202.844L34.786,202.844z M80.53,239.474
	c10.607,5.747,21.87,10.49,33.479,14.185c-1.072,2.232-2.49,4.26-4.258,6.027l-0.402,0.387
	C99.443,254.344,89.768,247.462,80.53,239.474L80.53,239.474z M116.844,254.532c7.463,2.254,15.057,4.079,22.695,5.461
	c8.207,1.487,16.479,2.452,24.695,2.91c-2.022,5.763-5.139,10.915-9.4,15.2c-14.34-3.204-28.803-8.741-42.828-16.532
	C114.029,259.502,115.641,257.132,116.844,254.532L116.844,254.532z M167.27,263.049c14.125,0.561,28.07-0.428,41.308-3.026
	c1.788-0.354,3.568-0.74,5.33-1.15c-2.58,8.039-6.696,15.216-12.431,21.194c-10.695,1.643-21.869,1.758-33.234,0.366
	c-3.336-0.41-6.691-0.956-10.057-1.624C162.307,274.272,165.322,268.949,167.27,263.049L167.27,263.049z M217.218,258.061
	c11.976-3.077,23.246-7.561,33.392-13.488c-3.42,9.104-8.527,17.275-15.4,24.15l-0.01,0.006c-9.021,4.988-18.799,8.484-29.07,10.522
	C211.249,273.109,214.924,265.954,217.218,258.061L217.218,258.061z M254.547,242.16c9.548-6.123,17.988-13.616,24.939-22.534
	c-1.242,3.211-2.706,6.302-4.386,9.253l0.028,0.016c-5.418,8.594-11.806,16.749-19.174,24.311V253.2
	c-3.872,3.827-8.004,7.257-12.353,10.293C248.403,257.098,252.04,249.926,254.547,242.16L254.547,242.16z M296.746,153.748
	c-1.408,8.709-4.611,16.871-9.312,24.436c-0.745-8.309-2.379-16.877-4.881-25.553c-0.885-3.066-1.875-6.143-2.975-9.221
	c5.373-6.656,9.433-13.203,11.91-19.443C294.502,134.047,296.266,144.072,296.746,153.748L296.746,153.748z M284.794,182.152
	c-6.631,9.342-15.575,17.699-26.204,24.977c-0.326-5.424-1.039-10.967-2.133-16.576c-1.283-6.556-3.085-13.209-5.398-19.896
	c7.352-5.737,13.986-11.595,19.722-17.43c2.362-2.404,4.567-4.807,6.61-7.195c0.863,2.477,1.644,4.95,2.355,7.416
	C282.571,163.244,284.271,172.885,284.794,182.152L284.794,182.152z M255.764,209.014c-5.816,3.772-12.08,7.233-18.717,10.369
	c-5.574,2.633-11.413,5.037-17.455,7.201c-0.442-4.227-1.141-8.541-2.113-12.91c-1.287-5.773-3.045-11.652-5.248-17.572
	c3.34-1.85,6.623-3.736,9.832-5.658c9.52-5.706,18.445-11.732,26.551-17.903c2.119,6.247,3.787,12.457,4.979,18.577
	C254.783,197.193,255.504,203.179,255.764,209.014L255.764,209.014z M216.752,227.582c-14.822,5.084-30.777,8.74-47.068,10.848
	c-0.297-3.214-0.809-6.49-1.529-9.811c-0.777-3.612-1.803-7.291-3.076-10.98c15.436-5.634,30.491-12.498,44.557-20.117
	c2.088,5.657,3.756,11.273,4.988,16.791C215.625,218.812,216.337,223.248,216.752,227.582L216.752,227.582z M166.78,238.789
	c-15.727,1.854-31.726,2.255-47.263,1.088c-0.083-2.185-0.35-4.418-0.793-6.688c-0.178-0.914-0.385-1.836-0.62-2.768
	c13.477-2.336,27.142-5.945,40.597-10.529c1.213-0.41,2.42-0.837,3.631-1.267c1.223,3.575,2.213,7.12,2.965,10.614
	C166,232.476,166.496,235.664,166.78,238.789L166.78,238.789z M116.577,239.636c-7.998-0.704-15.86-1.827-23.495-3.39
	c-4.049-0.826-8.023-1.783-11.924-2.859c11.014,0.27,22.451-0.623,34.053-2.479c0.252,0.95,0.461,1.903,0.646,2.845
	C116.242,235.752,116.486,237.714,116.577,239.636L116.577,239.636z M5.566,178.131c0.567,1.332,1.162,2.649,1.787,3.938
	c0.091,2.079,0.271,4.191,0.551,6.324C6.998,184.994,6.221,181.57,5.566,178.131L5.566,178.131z M10.873,188.578
	c5.371,8.967,12.297,16.746,20.443,23.404c0.118,1.791,0.359,3.609,0.721,5.453c0.1,0.523,0.216,1.05,0.335,1.576
	c-6.036-3.176-11.651-7.063-16.772-11.711c-1.525-4.191-2.735-8.348-3.619-12.438C11.523,192.75,11.156,190.652,10.873,188.578
	L10.873,188.578z M34.511,214.497c6.862,5.177,14.503,9.612,22.731,13.351c-7.525-1.617-14.709-3.957-21.408-7.117
	c-0.37-1.292-0.681-2.58-0.932-3.856C34.752,216.077,34.621,215.285,34.511,214.497L34.511,214.497z M290.796,105.488
	c0.702,2.725,0.853,5.621,0.485,8.65c-0.451-1.227-0.914-2.455-1.408-3.674c-3.545-8.887-8.032-17.744-13.422-26.395
	c0.99-2.367,1.672-4.611,2.014-6.715C283.604,86.359,287.71,95.797,290.796,105.488L290.796,105.488z M290.118,119.629
	c-1.954,6.546-5.954,13.578-11.636,20.812c-4.285-11.35-10.004-22.775-17.104-33.956c5.985-6.907,10.623-13.392,13.6-19.231
	c4.85,7.979,8.92,16.121,12.18,24.292C288.237,114.238,289.219,116.936,290.118,119.629L290.118,119.629z M276.351,143.084
	c-2.279,2.73-4.778,5.484-7.499,8.249c-5.462,5.556-11.77,11.14-18.756,16.63c-4.154-11.365-9.764-22.803-16.771-33.978
	c8.873-7.7,16.812-15.243,23.462-22.386c0.888-0.947,1.744-1.889,2.584-2.824C266.475,120.08,272.158,131.631,276.351,143.084
	L276.351,143.084z M247.674,169.848c-8.188,6.271-17.244,12.406-26.931,18.209c-3.104,1.86-6.274,3.688-9.494,5.475
	c-3.932-9.977-9.128-20.051-15.532-29.92c12.667-9.156,24.656-18.523,35.369-27.695
	C238.053,147.082,243.603,158.506,247.674,169.848L247.674,169.848z M208.652,194.948c-14.039,7.629-29.086,14.485-44.496,20.107
	c-2.834-7.612-6.672-15.308-11.469-22.841c1.485-0.9,2.963-1.812,4.445-2.734c12.312-7.65,24.528-15.802,36.204-24.16
	C199.677,175.105,204.797,185.079,208.652,194.948L208.652,194.948z M161.406,216.039c-1.146,0.408-2.287,0.81-3.441,1.198
	c-13.467,4.593-27.152,8.196-40.619,10.51c-1.322-4.232-3.223-8.51-5.681-12.701c12.5-6.236,25.519-13.46,38.526-21.313
	C154.885,201.094,158.635,208.609,161.406,216.039L161.406,216.039z M114.43,228.224c-13.072,2.058-25.916,2.874-38.141,2.151
	c10.152-3.605,21.211-8.378,32.742-14.033C111.354,220.27,113.164,224.27,114.43,228.224L114.43,228.224z M17.879,213.046
	c4.82,3.812,10.01,7.032,15.506,9.716c1.258,4.063,3.055,8.18,5.375,12.219c-4.469-0.333-8.156-1.443-10.91-3.437
	C23.873,225.443,20.536,219.232,17.879,213.046L17.879,213.046z M37.044,224.451c8.036,3.484,16.671,5.879,25.747,7.312
	c-3.979,1.074-7.74,1.909-11.261,2.471c-3.347,0.529-6.456,0.824-9.315,0.85C40.07,231.578,38.348,228.002,37.044,224.451
	L37.044,224.451z M293.068,119.25c0.282-1.029,0.511-2.052,0.697-3.057c1.229,5.193,2.178,10.442,2.84,15.717
	C295.643,127.707,294.461,123.482,293.068,119.25L293.068,119.25z M275.799,72.871c0.335,2.456-0.068,5.266-1.147,8.375
	c-6.659-10.256-14.598-20.188-23.784-29.5l4.677-4.678C263.393,55.057,270.141,63.723,275.799,72.871L275.799,72.871z
	 M273.307,84.562c-2.672,5.77-7.293,12.392-13.451,19.559c-7.672-11.726-16.85-23.148-27.465-33.898l16.4-16.408
	C258.348,63.506,266.534,73.868,273.307,84.562L273.307,84.562z M257.853,106.41c-0.98,1.104-1.997,2.226-3.051,3.352
	c-6.509,6.992-14.272,14.375-22.944,21.913c-7.557-11.687-16.642-23.061-27.192-33.733l25.655-25.65
	C241,83.105,250.205,94.611,257.853,106.41L257.853,106.41z M229.625,133.609c-10.703,9.174-22.706,18.555-35.4,27.731
	c-6.723-10.036-14.686-19.85-23.838-29.12l32.215-32.207C213.102,110.648,222.138,121.974,229.625,133.609L229.625,133.609z
	 M191.844,163.05c-11.625,8.323-23.797,16.448-36.062,24.069c-1.528,0.947-3.058,1.885-4.578,2.816
	c-4.874-7.327-10.65-14.479-17.291-21.242l34.404-34.398C177.359,143.454,185.223,153.142,191.844,163.05L191.844,163.05z
	 M107.588,214.018c-11.69,5.719-22.871,10.519-33.077,14.084l24.654-24.653C102.408,206.816,105.225,210.365,107.588,214.018
	L107.588,214.018z M31.182,236.406c2.717,0.914,5.844,1.387,9.33,1.468c2.523,3.932,5.531,7.763,9.014,11.376l-4.084,4.091
	C40.11,247.91,35.348,242.227,31.182,236.406L31.182,236.406z M43.988,237.83c2.449-0.113,5.049-0.393,7.782-0.827
	c4.017-0.644,8.333-1.624,12.911-2.907l-13.08,13.08C48.721,244.189,46.181,241.051,43.988,237.83L43.988,237.83z M152.227,280.492
	c-3.217,2.69-6.823,4.822-10.744,6.416c-13.85-4.406-26.391-11.213-37.553-19.845c2.078-0.888,4.02-2.031,5.781-3.43
	C123.619,271.463,137.971,277.104,152.227,280.492L152.227,280.492z M61.252,220.219c-7.999-9.254-14.88-18.952-20.625-28.885
	l0.381-0.393c1.768-1.768,3.803-3.186,6.033-4.261C50.739,198.31,55.492,209.594,61.252,220.219L61.252,220.219z M39.123,188.688
	C31.334,174.66,25.801,160.193,22.6,145.85c4.289-4.258,9.428-7.375,15.191-9.396c0.451,8.225,1.43,16.494,2.912,24.703
	c1.379,7.637,3.211,15.236,5.461,22.699C43.566,185.057,41.191,186.659,39.123,188.688L39.123,188.688z M21.895,142.504
	c-0.67-3.361-1.213-6.713-1.619-10.042c-1.398-11.369-1.281-22.556,0.361-33.254c5.979-5.728,13.152-9.842,21.186-12.422
	c-0.41,1.765-0.797,3.543-1.15,5.33c-2.6,13.237-3.588,27.183-3.026,41.302C31.746,135.364,26.428,138.381,21.895,142.504
	L21.895,142.504z M21.457,94.556c2.046-10.284,5.545-20.069,10.539-29.096c6.873-6.86,15.037-11.962,24.123-15.376
	c-5.932,10.146-10.402,21.417-13.485,33.392C34.745,85.77,27.6,89.441,21.457,94.556L21.457,94.556z M37.234,57.069
	c3.033-4.343,6.454-8.459,10.27-12.321l-0.011-0.014c7.429-7.242,15.437-13.543,23.87-18.898c3.098-1.794,6.353-3.34,9.732-4.653
	c-8.924,6.958-16.434,15.4-22.562,24.964C50.789,48.645,43.621,52.275,37.234,57.069L37.234,57.069z M78.838,241.881
	c9.02,7.77,18.451,14.501,28.108,20.164c-1.728,1.223-3.63,2.195-5.669,2.912C92.994,258.201,85.504,250.425,78.838,241.881
	L78.838,241.881z M155.734,281.285c4.064,0.866,8.121,1.547,12.154,2.043c10.195,1.246,20.243,1.312,29.945,0.174
	c-3.785,3.258-7.998,5.917-12.551,7.986c-0.823,0.373-1.653,0.725-2.5,1.061c-13.193,0.382-25.561-1.177-37.061-4.371
	C149.371,286.369,152.738,284.07,155.734,281.285L155.734,281.285z M202.902,282.797c8.023-1.307,15.777-3.455,23.152-6.465
	c-1.826,1.258-3.719,2.418-5.65,3.484l0.119,0.215c-9.471,5.123-19.383,9.143-29.547,12.043l-0.465,0.037
	c4.492-2.477,8.609-5.532,12.281-9.199L202.902,282.797L202.902,282.797z M137.021,288.453c-5.452,1.58-11.396,2.242-17.661,2.023
	c-10.354-5.146-19.248-12.307-26.764-21.018c2.824-0.084,5.54-0.494,8.09-1.23C111.514,276.831,123.645,283.754,137.021,288.453
	L137.021,288.453z M75.521,242.348c6.628,8.686,14.075,16.624,22.329,23.561c-2.432,0.506-5.006,0.711-7.686,0.617
	C84.429,259.332,79.559,251.193,75.521,242.348L75.521,242.348z M141.607,289.965c10.086,3.1,20.855,4.954,32.266,5.364
	c-2.615,0.604-5.309,1.072-8.073,1.382l0.024,0.239c-5.145,0.542-10.312,0.812-15.475,0.812c-3.788,0-7.569-0.15-11.35-0.439
	c-4.693-1.018-9.154-2.385-13.393-4.066C131.289,292.918,136.668,291.834,141.607,289.965L141.607,289.965z M64.504,220.129
	c-6.037-10.898-10.99-22.533-14.803-34.539c2.641-0.91,5.506-1.398,8.516-1.499c0.712,8.268,1.859,16.396,3.477,24.284
	C62.51,212.356,63.45,216.281,64.504,220.129L64.504,220.129z M48.836,182.79c-2.213-7.343-4.006-14.818-5.371-22.337
	c-1.492-8.268-2.464-16.598-2.894-24.871c5.71-1.611,11.962-2.221,18.552-1.873c-1.862,15.793-2.282,31.85-1.141,47.463
	C54.762,181.285,51.689,181.818,48.836,182.79L48.836,182.79z M40.43,132.586c-0.505-13.723,0.471-27.268,2.998-40.118
	c0.439-2.214,0.922-4.402,1.451-6.571c7.823-2.086,16.389-2.791,25.409-2.187c-5.054,14.858-8.694,30.812-10.806,47.093
	C52.752,130.426,46.338,131.01,40.43,132.586L40.43,132.586z M45.701,82.666c3.277-12.271,8.079-23.756,14.453-33.971
	c8.781-2.744,18.333-4.01,28.359-3.859c-3.521,5.559-6.766,11.503-9.726,17.771c-2.757,5.821-5.255,11.93-7.503,18.24
	C62.249,80.164,53.633,80.757,45.701,82.666L45.701,82.666z M62.609,44.945C69.82,34.41,78.838,25.374,89.718,18.433
	c7.673-1.962,15.896-2.853,24.471-2.709c-8.886,6.882-16.843,15.809-23.8,26.237C80.635,41.65,71.295,42.632,62.609,44.945
	L62.609,44.945z M97.835,13.83c5.454-2.734,11.315-4.994,17.587-6.716c4.281-1.038,8.6-1.888,12.941-2.539l0.006,0.05
	c2.408-0.326,4.848-0.559,7.322-0.695c-6.215,2.131-12.115,5.173-17.682,8.997C111.054,12.578,104.297,12.874,97.835,13.83
	L97.835,13.83z M112.176,289.855c-6.079-0.822-12.381-2.412-18.752-4.729c-4.658-5.123-8.557-10.762-11.742-16.806
	c0.533,0.122,1.053,0.235,1.58,0.342c1.84,0.354,3.658,0.597,5.449,0.716C95.387,277.542,103.189,284.48,112.176,289.855
	L112.176,289.855z M72.846,243.442c3.738,8.23,8.174,15.874,13.354,22.74c-0.791-0.109-1.582-0.241-2.382-0.392
	c-1.274-0.248-2.56-0.559-3.856-0.932C76.803,258.153,74.461,250.977,72.846,243.442L72.846,243.442z M118.537,293.295
	c1.322,0.646,2.659,1.256,4.025,1.834c-3.539-0.678-7.06-1.478-10.557-2.414C114.214,293.006,116.393,293.2,118.537,293.295
	L118.537,293.295z M67.309,219.523c-1.078-3.895-2.033-7.869-2.861-11.91c-1.567-7.636-2.685-15.498-3.389-23.497
	c1.921,0.091,3.883,0.329,5.883,0.722c0.941,0.184,1.896,0.4,2.852,0.645C67.93,197.084,67.043,208.518,67.309,219.523
	L67.309,219.523z M60.816,181.176c-1.16-15.536-0.762-31.535,1.09-47.266c3.124,0.287,6.312,0.783,9.547,1.486
	c3.494,0.752,7.043,1.742,10.611,2.969c-0.427,1.207-0.854,2.414-1.264,3.628c-4.586,13.454-8.193,27.12-10.529,40.596
	c-0.924-0.235-1.853-0.442-2.773-0.62C65.234,181.525,63.002,181.26,60.816,181.176L60.816,181.176z M62.268,131.01
	c2.104-16.287,5.763-32.246,10.84-47.068c4.338,0.422,8.774,1.126,13.273,2.129c5.519,1.234,11.135,2.9,16.791,4.988
	c-7.619,14.066-14.482,29.125-20.117,44.554c-3.689-1.263-7.361-2.296-10.98-3.075C68.756,131.818,65.479,131.309,62.268,131.01
	L62.268,131.01z M74.109,81.102c2.164-6.035,4.569-11.877,7.203-17.454c3.135-6.638,6.602-12.908,10.367-18.718
	c5.842,0.261,11.82,0.981,17.896,2.17c6.12,1.193,12.336,2.862,18.577,4.979c-6.171,8.113-12.19,17.037-17.903,26.557
	c-1.922,3.211-3.814,6.493-5.658,9.83c-5.92-2.203-11.799-3.961-17.571-5.25C82.65,82.24,78.337,81.538,74.109,81.102L74.109,81.102
	z M93.564,42.104c7.281-10.635,15.646-19.589,24.99-26.213c8.596,0.485,17.512,1.981,26.566,4.454
	c3.168,0.862,6.354,1.854,9.549,2.95c-2.395,2.045-4.798,4.256-7.203,6.619c-5.832,5.735-11.686,12.369-17.43,19.725
	c-6.686-2.311-13.34-4.119-19.896-5.402C104.531,43.143,98.988,42.431,93.564,42.104L93.564,42.104z M122.523,13.254
	c7.64-4.738,15.877-7.965,24.674-9.348c9.625,0.502,19.574,2.277,29.592,5.277c-6.259,2.474-12.824,6.54-19.496,11.93
	c-3.816-1.357-7.621-2.561-11.399-3.592C137.964,15.363,130.138,13.93,122.523,13.254L122.523,13.254z M87.664,282.832
	c-6.193-2.666-12.403-6.001-18.508-9.982c-1.998-2.754-3.109-6.447-3.439-10.915c4.035,2.319,8.151,4.117,12.219,5.374
	C80.616,272.814,83.846,278.01,87.664,282.832L87.664,282.832z M184.501,6.93c-0.99,0.178-1.993,0.41-3,0.68
	c-4.114-1.357-8.224-2.52-12.315-3.471C174.328,4.794,179.438,5.732,184.501,6.93L184.501,6.93z M68.931,237.9
	c1.433,9.076,3.827,17.721,7.312,25.752c-3.549-1.301-7.121-3.028-10.632-5.172c0.024-2.859,0.319-5.977,0.853-9.316
	C67.027,245.644,67.857,241.872,68.931,237.9L68.931,237.9z M70.322,224.405c-0.721-12.226,0.092-25.067,2.154-38.142
	c3.947,1.267,7.954,3.082,11.875,5.398C78.697,203.195,73.929,214.249,70.322,224.405L70.322,224.405z M72.953,183.351
	c2.308-13.469,5.916-27.148,10.504-40.62c0.389-1.148,0.79-2.296,1.197-3.443c7.43,2.771,14.945,6.521,22.307,11.215
	c-7.854,13.009-15.076,26.026-21.311,38.533C81.463,186.574,77.18,184.671,72.953,183.351L72.953,183.351z M85.639,136.537
	c5.621-15.41,12.482-30.457,20.106-44.502c9.87,3.862,19.845,8.984,29.632,15.321c-8.354,11.677-16.514,23.892-24.164,36.204
	c-0.922,1.477-1.83,2.96-2.734,4.442C100.945,143.209,93.254,139.372,85.639,136.537L85.639,136.537z M107.166,89.451
	c1.783-3.227,3.609-6.391,5.471-9.496c5.81-9.686,11.939-18.746,18.209-26.936c11.342,4.066,22.767,9.615,33.932,16.589
	c-9.167,10.712-18.533,22.702-27.688,35.368C127.213,98.578,117.146,93.379,107.166,89.451L107.166,89.451z M132.73,50.596
	c5.491-6.983,11.074-13.287,16.631-18.753c2.764-2.722,5.519-5.228,8.251-7.5c11.45,4.191,23.001,9.876,34.312,16.985
	c-0.941,0.836-1.883,1.692-2.83,2.573c-7.141,6.653-14.68,14.598-22.382,23.47C155.537,60.361,144.1,54.752,132.73,50.596
	L132.73,50.596z M160.26,22.205c7.252-5.691,14.303-9.701,20.865-11.645c2.807,0.938,5.615,1.969,8.422,3.102
	c8.042,3.238,16.061,7.268,23.916,12.049c-5.842,2.965-12.345,7.614-19.254,13.6C183.033,32.215,171.609,26.493,160.26,22.205
	L160.26,22.205z M186.623,9.403c3.016-0.357,5.893-0.2,8.607,0.502c9.682,3.085,19.106,7.191,28.107,12.325
	c-2.096,0.344-4.339,1.015-6.702,2.01c-8.522-5.322-17.238-9.765-25.999-13.291C189.299,10.415,187.963,9.898,186.623,9.403
	L186.623,9.403z M64.283,269.51c-5.816-4.174-11.5-8.927-16.924-14.257l4.085-4.085c3.612,3.486,7.444,6.496,11.375,9.015
	C62.901,263.662,63.381,266.795,64.283,269.51L64.283,269.51z M66.607,236.012c-1.291,4.571-2.273,8.895-2.916,12.918
	c-0.436,2.727-0.712,5.326-0.824,7.779c-3.223-2.195-6.361-4.735-9.354-7.616L66.607,236.012L66.607,236.012z M72.586,226.189
	c3.57-10.213,8.365-21.387,14.091-33.088c3.652,2.367,7.208,5.184,10.569,8.428L72.586,226.189L72.586,226.189z M87.978,190.461
	c6.208-12.462,13.415-25.467,21.263-38.47c7.133,4.753,14.094,10.388,20.685,16.859l-30.608,30.612
	C95.719,195.986,91.899,192.982,87.978,190.461L87.978,190.461z M110.762,149.49c0.928-1.521,1.865-3.048,2.812-4.572
	c7.615-12.265,15.75-24.442,24.076-36.068c9.901,6.621,19.593,14.485,28.751,23.527L132,166.78
	C125.237,160.141,118.086,154.364,110.762,149.49L110.762,149.49z M139.353,106.469c9.177-12.691,18.559-24.697,27.731-35.399
	c11.636,7.493,22.967,16.522,33.596,27.022l-32.205,32.215C159.202,121.155,149.389,113.191,139.353,106.469L139.353,106.469z
	 M169.014,68.837c7.543-8.669,14.928-16.438,21.918-22.945c1.133-1.054,2.248-2.069,3.355-3.05
	c11.799,7.646,23.301,16.852,34.108,27.537l-25.644,25.645C192.074,85.479,180.705,76.393,169.014,68.837L169.014,68.837z
	 M196.572,40.838c7.178-6.167,13.805-10.789,19.58-13.459c10.692,6.777,21.052,14.967,30.727,24.511l-16.408,16.413
	C219.725,57.688,208.298,48.51,196.572,40.838L196.572,40.838z M219.461,26.035c3.106-1.071,5.906-1.475,8.361-1.141
	c9.148,5.659,17.814,12.407,25.803,20.255l-4.684,4.684C239.636,40.646,229.711,32.702,219.461,26.035L219.461,26.035z
	 M69.602,23.486c-0.74,0.437-1.483,0.883-2.204,1.342l0.034,0.061c-8.269,5.48-16.115,11.857-23.406,19.144
	C14.676,73.383,0,111.865,0,150.35c0,38.477,14.676,76.961,44.025,106.312c29.357,29.356,67.84,44.032,106.324,44.032
	c38.479,0,76.955-14.676,106.312-44.032c29.356-29.351,44.032-67.835,44.032-106.312c0-38.484-14.676-76.967-44.032-106.317
	C227.305,14.676,188.828,0,150.35,0C122.25,0,94.15,7.828,69.602,23.486L69.602,23.486z"/>
<path fill="#FFBC1A" d="M170.77,131.844c6.59,6.471,13.55,12.108,20.684,16.861c7.844-13.004,15.055-26.011,21.258-38.473
	c-3.916-2.518-7.736-5.525-11.336-8.996L170.77,131.844L170.77,131.844z M185.283,293.576c6.285-1.725,12.155-3.99,17.619-6.737
	c-6.472,0.966-13.23,1.263-20.194,0.912c-5.509,3.79-11.345,6.808-17.493,8.944c2.664-0.158,5.281-0.426,7.867-0.796l0.01,0.106
	C177.178,295.37,181.25,294.559,185.283,293.576L185.283,293.576z M211.008,282.242c10.867-6.939,19.875-15.965,27.084-26.496
	c-8.693,2.314-18.033,3.301-27.787,2.99c-6.949,10.422-14.912,19.342-23.791,26.224
	C195.099,285.105,203.322,284.209,211.008,282.242L211.008,282.242z M240.539,252c6.374-10.219,11.178-21.697,14.453-33.969
	c-7.932,1.906-16.547,2.498-25.584,1.818c-2.244,6.314-4.746,12.415-7.502,18.242c-2.96,6.263-6.205,12.209-9.727,17.771
	C222.207,256.015,231.758,254.742,240.539,252L240.539,252z M255.82,214.805c0.523-2.174,1.011-4.365,1.445-6.578
	c2.527-12.852,3.504-26.396,2.998-40.119c-5.91,1.58-12.322,2.16-19.053,1.783c-2.109,16.285-5.752,32.24-10.811,47.094
	C239.426,217.595,247.992,216.887,255.82,214.805L255.82,214.805z M260.121,165.112c-0.43-8.273-1.399-16.604-2.893-24.872
	c-1.364-7.519-3.157-14.994-5.371-22.333c-2.853,0.966-5.925,1.501-9.145,1.618c1.141,15.61,0.721,31.67-1.142,47.459
	C248.158,167.332,254.413,166.725,260.121,165.112L260.121,165.112z M250.985,115.107c-3.812-12.009-8.759-23.643-14.796-34.541
	c1.055,3.846,1.995,7.771,2.811,11.756c1.617,7.889,2.765,16.013,3.477,24.281C245.486,116.503,248.353,116.014,250.985,115.107
	L250.985,115.107z M221.896,58.869c-6.672-8.566-14.174-16.363-22.479-23.129c-2.046,0.721-3.948,1.686-5.679,2.912
	C203.424,44.324,212.867,51.081,221.896,58.869L221.896,58.869z M196.764,33.631c-11.156-8.627-23.688-15.427-37.527-19.835
	c-3.938,1.593-7.553,3.722-10.771,6.411c14.258,3.389,28.604,9.029,42.508,16.859C192.744,35.664,194.686,34.52,196.764,33.631
	L196.764,33.631z M154.961,12.516c-11.52-3.193-23.891-4.752-37.104-4.37c-0.498,0.2-0.988,0.401-1.474,0.614
	c-4.948,2.152-9.497,4.961-13.554,8.447c9.716-1.142,19.773-1.082,29.986,0.169c4.021,0.496,8.069,1.177,12.129,2.038
	C147.947,16.624,151.305,14.332,154.961,12.516L154.961,12.516z M110.141,8.585l-0.43,0.038C99.475,11.547,89.495,15.6,79.97,20.772
	l0.116,0.21c-1.899,1.053-3.744,2.2-5.516,3.42c7.387-3.019,15.166-5.182,23.211-6.489l0.119-0.132l0.01,0.006
	C101.566,14.125,105.674,11.064,110.141,8.585L110.141,8.585z M126.662,5.361c11.459,0.398,22.267,2.255,32.396,5.365
	c4.928-1.875,10.287-2.973,15.952-3.318c-4.223-1.673-8.659-3.024-13.325-4.037c-3.772-0.289-7.556-0.439-11.336-0.439
	c-4.385,0-8.775,0.194-13.143,0.59l0.012,0.166C133.584,3.998,130.055,4.553,126.662,5.361L126.662,5.361z M163.705,12.253
	c13.363,4.703,25.49,11.612,36.303,20.22c2.553-0.74,5.266-1.147,8.09-1.231c-7.499-8.694-16.376-15.849-26.703-20.991
	C175.121,10.025,169.164,10.676,163.705,12.253L163.705,12.253z M202.844,34.787c8.242,6.938,15.697,14.871,22.316,23.555
	c-4.035-8.841-8.895-16.984-14.633-24.176C207.85,34.072,205.275,34.275,202.844,34.787L202.844,34.787z M239.471,80.531
	c5.75,10.604,10.493,21.871,14.181,33.482c2.232-1.076,4.267-2.494,6.028-4.262l0.393-0.396
	C254.342,99.443,247.459,89.768,239.471,80.531L239.471,80.531z M254.532,116.838c2.254,7.469,4.079,15.062,5.459,22.701
	c1.482,8.214,2.454,16.479,2.912,24.695c5.763-2.016,10.915-5.139,15.2-9.4c-3.205-14.34-8.741-28.8-16.533-42.834
	C259.502,114.029,257.127,115.637,254.532,116.838L254.532,116.838z M263.049,167.275c0.561,14.119-0.422,28.064-3.026,41.302
	c-0.354,1.794-0.74,3.568-1.15,5.33c8.039-2.573,15.214-6.696,21.194-12.431c1.643-10.695,1.752-21.869,0.359-33.234
	c-0.41-3.34-0.949-6.693-1.619-10.055C274.272,162.307,268.947,165.322,263.049,167.275L263.049,167.275z M258.061,217.219
	c-3.077,11.975-7.561,23.245-13.486,33.391c9.096-3.414,17.273-8.524,24.142-15.4l0.011-0.01c4.99-9.02,8.486-18.799,10.524-29.07
	C273.105,211.249,265.951,214.924,258.061,217.219L258.061,217.219z M242.16,254.547c-6.123,9.548-13.623,17.992-22.536,24.939
	c3.214-1.242,6.298-2.706,9.255-4.384l0.016,0.032c8.594-5.422,16.752-11.812,24.306-19.173v-0.007
	c3.829-3.872,7.251-8.004,10.292-12.353C257.098,248.403,249.922,252.04,242.16,254.547L242.16,254.547z M153.748,296.746
	c8.705-1.407,16.871-4.611,24.433-9.312c-8.306-0.738-16.874-2.373-25.55-4.879c-3.066-0.883-6.137-1.881-9.221-2.977
	c-6.662,5.373-13.203,9.433-19.445,11.91C134.047,294.502,144.072,296.27,153.748,296.746L153.748,296.746z M182.146,284.795
	c9.348-6.625,17.705-15.57,24.982-26.205c-5.424-0.327-10.967-1.035-16.576-2.133c-6.553-1.282-13.209-3.085-19.896-5.398
	c-5.737,7.352-11.598,13.986-17.43,19.724c-2.404,2.364-4.809,4.565-7.197,6.616c2.479,0.855,4.953,1.637,7.418,2.348
	C163.243,282.578,172.885,284.271,182.146,284.795L182.146,284.795z M209.014,255.764c3.766-5.812,7.233-12.08,10.367-18.717
	c2.635-5.578,5.041-11.413,7.203-17.455c-4.227-0.436-8.541-1.138-12.91-2.113c-5.773-1.289-11.652-3.044-17.572-5.248
	c-1.85,3.34-3.736,6.623-5.658,9.832c-5.713,9.52-11.732,18.442-17.903,26.557c6.247,2.113,12.457,3.781,18.573,4.979
	C197.193,254.783,203.172,255.504,209.014,255.764L209.014,255.764z M227.588,216.752c5.076-14.814,8.734-30.773,10.838-47.064
	c-3.217-0.301-6.487-0.812-9.807-1.529c-3.617-0.781-7.289-1.808-10.98-3.077c-5.635,15.429-12.491,30.488-20.117,44.554
	c5.657,2.088,11.273,3.756,16.791,4.988C218.812,215.626,223.248,216.337,227.588,216.752L227.588,216.752z M238.787,166.787
	c1.852-15.733,2.25-31.732,1.09-47.27c-2.186-0.083-4.418-0.35-6.686-0.789c-0.916-0.175-1.838-0.385-2.77-0.624
	c-2.336,13.476-5.942,27.142-10.529,40.597c-0.41,1.213-0.838,2.424-1.268,3.631c3.572,1.223,7.121,2.213,10.615,2.972
	C232.475,166,235.661,166.496,238.787,166.787L238.787,166.787z M239.636,116.578c-0.704-7.998-1.821-15.861-3.39-23.496
	c-0.828-4.045-1.783-8.023-2.859-11.924c0.27,11.014-0.623,22.449-2.479,34.053c0.95,0.244,1.903,0.461,2.841,0.646
	C235.752,116.248,237.714,116.486,239.636,116.578L239.636,116.578z M178.131,5.565c1.332,0.568,2.643,1.163,3.934,1.788
	c2.08,0.096,4.189,0.275,6.325,0.551C184.99,6.998,181.57,6.221,178.131,5.565L178.131,5.565z M188.578,10.877
	c8.967,5.367,16.749,12.293,23.404,20.439c1.791,0.118,3.609,0.359,5.446,0.721c0.53,0.1,1.057,0.216,1.583,0.335
	c-3.176-6.036-7.063-11.65-11.711-16.772c-4.191-1.525-8.346-2.735-12.436-3.616C192.744,11.523,190.654,11.155,188.578,10.877
	L188.578,10.877z M214.494,34.518c5.18,6.859,9.615,14.496,13.354,22.727c-1.615-7.531-3.957-14.703-7.117-21.41
	c-1.297-0.367-2.58-0.681-3.857-0.928C216.077,34.746,215.285,34.621,214.494,34.518L214.494,34.518z M105.485,290.795
	c2.728,0.703,5.624,0.848,8.653,0.486c-1.227-0.451-2.455-0.914-3.674-1.401c-8.887-3.552-17.744-8.036-26.395-13.422
	c-2.367,0.983-4.611,1.661-6.715,2.007C86.359,283.604,95.797,287.71,105.485,290.795L105.485,290.795z M119.628,290.118
	c6.542-1.954,13.573-5.96,20.813-11.629c-11.35-4.292-22.775-10.011-33.956-17.109c-6.907,5.979-13.394,10.622-19.233,13.599
	c7.98,4.85,16.123,8.92,24.294,12.181C114.238,288.237,116.936,289.219,119.628,290.118L119.628,290.118z M143.081,276.351
	c2.733-2.279,5.487-4.784,8.252-7.499c5.558-5.462,11.14-11.771,16.63-18.752c-11.369-4.155-22.807-9.768-33.98-16.774
	c-7.701,8.872-15.242,16.815-22.383,23.468c-0.947,0.881-1.889,1.737-2.824,2.574C120.08,266.479,131.631,272.159,143.081,276.351
	L143.081,276.351z M169.848,247.675c6.271-8.189,12.4-17.243,18.209-26.936c1.862-3.101,3.688-6.271,5.472-9.495
	c-9.979-3.927-20.048-9.123-29.925-15.527c-9.151,12.67-18.52,24.656-27.688,35.369
	C147.082,238.059,158.506,243.609,169.848,247.675L169.848,247.675z M194.948,208.659c7.626-14.046,14.485-29.093,20.106-44.503
	c-7.615-2.832-15.306-6.672-22.84-11.466c-0.904,1.482-1.812,2.966-2.734,4.449c-7.65,12.306-15.809,24.521-24.164,36.197
	C175.104,199.674,185.079,204.803,194.948,208.659L194.948,208.659z M216.039,161.406c0.408-1.141,0.81-2.287,1.198-3.441
	c4.587-13.467,8.196-27.152,10.51-40.619c-4.232-1.319-8.51-3.223-12.704-5.681c-6.229,12.5-13.456,25.519-21.316,38.527
	C201.094,154.885,208.611,158.642,216.039,161.406L216.039,161.406z M228.217,114.43c2.062-13.073,2.879-25.916,2.154-38.141
	c-3.605,10.158-8.374,21.211-14.029,32.745C220.269,111.354,224.27,113.164,228.217,114.43L228.217,114.43z M213.039,17.879
	c3.818,4.818,7.038,10.006,9.719,15.506c4.066,1.26,8.184,3.055,12.223,5.375c-0.333-4.468-1.445-8.156-3.437-10.912
	C225.443,23.873,219.23,20.536,213.039,17.879L213.039,17.879z M224.451,37.041c3.484,8.039,5.881,16.674,7.312,25.75
	c1.072-3.972,1.902-7.74,2.465-11.262c0.535-3.346,0.83-6.455,0.861-9.309C231.578,40.076,228,38.348,224.451,37.041L224.451,37.041
	z M119.25,293.068c-1.029,0.282-2.045,0.511-3.057,0.697c5.188,1.23,10.436,2.185,15.717,2.84
	C127.707,295.646,123.482,294.463,119.25,293.068L119.25,293.068z M72.868,275.799c2.464,0.336,5.267-0.068,8.374-1.147
	c-10.252-6.659-20.184-14.604-29.503-23.784l-4.678,4.678C55.057,263.393,63.722,270.141,72.868,275.799L72.868,275.799z
	 M84.562,273.307c5.77-2.672,12.388-7.289,19.559-13.451c-11.726-7.672-23.15-16.85-33.898-27.465l-16.408,16.406
	C63.506,258.352,73.868,266.534,84.562,273.307L84.562,273.307z M106.407,257.853c1.106-0.98,2.224-1.99,3.354-3.048
	c6.992-6.509,14.375-14.275,21.918-22.947c-11.691-7.557-23.066-16.642-33.738-27.186l-25.65,25.648
	C83.105,241.004,94.607,250.205,106.407,257.853L106.407,257.853z M133.609,229.625c9.174-10.703,18.555-22.706,27.731-35.4
	c-10.036-6.723-19.85-14.686-29.122-23.832l-32.205,32.206C110.643,213.102,121.974,222.138,133.609,229.625L133.609,229.625z
	 M163.05,191.848c8.318-11.629,16.448-23.801,24.069-36.072c0.947-1.521,1.885-3.051,2.816-4.571
	c-7.328-4.874-14.479-10.65-21.242-17.284l-34.398,34.397C143.451,177.359,153.135,185.223,163.05,191.848L163.05,191.848z
	 M214.018,107.592c5.725-11.694,10.52-22.875,14.084-33.081l-24.653,24.654C206.809,102.409,210.365,105.226,214.018,107.592
	L214.018,107.592z M236.406,31.182c0.907,2.719,1.387,5.844,1.467,9.33c3.933,2.518,7.764,5.533,11.369,9.014l4.098-4.085
	C247.911,40.11,242.227,35.348,236.406,31.182L236.406,31.182z M237.826,43.989c-0.112,2.448-0.389,5.048-0.824,7.781
	c-0.643,4.017-1.624,8.34-2.906,12.911l13.078-13.08C244.186,48.721,241.051,46.181,237.826,43.989L237.826,43.989z
	 M280.492,152.227c2.69-3.211,4.822-6.823,6.416-10.744c-4.406-13.85-11.213-26.388-19.845-37.549
	c-0.89,2.074-2.031,4.016-3.429,5.784C271.463,123.619,277.103,137.971,280.492,152.227L280.492,152.227z M220.213,61.252
	c-9.256-7.998-18.946-14.88-28.881-20.625l-0.391,0.381c-1.768,1.768-3.186,3.803-4.261,6.034
	C198.309,50.739,209.594,55.492,220.213,61.252L220.213,61.252z M188.688,39.123c-14.035-7.789-28.496-13.322-42.832-16.523
	c-4.264,4.283-7.381,9.428-9.396,15.191c8.214,0.451,16.488,1.423,24.697,2.912c7.637,1.383,15.23,3.211,22.693,5.465
	C185.053,43.566,186.658,41.199,188.688,39.123L188.688,39.123z M142.504,21.894c-3.361-0.663-6.713-1.212-10.042-1.618
	c-11.372-1.398-22.55-1.281-33.254,0.368c-5.731,5.972-9.842,13.146-12.422,21.185c1.759-0.416,3.543-0.803,5.323-1.15
	c13.244-2.605,27.189-3.586,41.303-3.031C135.364,31.746,138.381,26.428,142.504,21.894L142.504,21.894z M94.555,21.459
	c-10.286,2.044-20.074,5.543-29.102,10.544c-6.859,6.872-11.957,15.03-15.369,24.12c10.143-5.93,21.417-10.406,33.391-13.489
	C85.77,34.746,89.441,27.602,94.555,21.459L94.555,21.459z M57.069,37.234c-4.337,3.033-8.466,6.453-12.321,10.27l-0.014-0.016
	c-7.242,7.434-13.538,15.447-18.898,23.879c-1.795,3.098-3.34,6.346-4.653,9.729c6.956-8.924,15.4-16.434,24.956-22.559
	C48.645,50.783,52.275,43.622,57.069,37.234L57.069,37.234z M241.881,78.844c7.772,9.015,14.494,18.445,20.164,28.103
	c1.223-1.728,2.193-3.631,2.912-5.669C258.201,92.994,250.425,85.504,241.881,78.844L241.881,78.844z M281.283,155.734
	c0.868,4.07,1.549,8.121,2.041,12.154c1.25,10.197,1.316,20.243,0.178,29.95c3.258-3.79,5.91-8.003,7.986-12.558
	c0.373-0.82,0.724-1.651,1.061-2.498c0.382-13.193-1.184-25.56-4.379-37.06C286.369,149.377,284.074,152.738,281.283,155.734
	L281.283,155.734z M282.791,202.902c-1.301,8.023-3.455,15.777-6.459,23.154c1.254-1.831,2.424-3.715,3.484-5.652l0.209,0.119
	c5.129-9.473,9.148-19.379,12.046-29.544l0.04-0.461c-2.479,4.487-5.532,8.603-9.197,12.269L282.791,202.902L282.791,202.902z
	 M288.45,137.023c1.583-5.453,2.245-11.399,2.026-17.662c-5.146-10.355-12.313-19.25-21.018-26.766c-0.09,2.824-0.5,5.54-1.23,8.096
	C276.83,111.515,283.754,123.645,288.45,137.023L288.45,137.023z M242.342,75.521c8.695,6.628,16.629,14.075,23.566,22.329
	c0.504-2.432,0.711-5.013,0.617-7.686C259.332,84.429,251.188,79.559,242.342,75.521L242.342,75.521z M289.965,141.607
	c3.094,10.086,4.954,20.85,5.364,32.266c0.606-2.615,1.065-5.314,1.376-8.073l0.242,0.024c0.539-5.145,0.821-10.309,0.821-15.475
	c0-3.788-0.157-7.576-0.446-11.352c-1.018-4.689-2.385-9.152-4.068-13.387C292.918,131.295,291.827,136.673,289.965,141.607
	L289.965,141.607z M220.129,64.51c-10.898-6.041-22.533-10.989-34.539-14.809c-0.91,2.64-1.398,5.506-1.5,8.516
	c8.266,0.712,16.398,1.862,24.283,3.477C212.357,62.51,216.275,63.45,220.129,64.51L220.129,64.51z M182.789,48.842
	c-7.342-2.217-14.818-4.012-22.329-5.377c-8.274-1.492-16.605-2.464-24.886-2.896c-1.604,5.719-2.213,11.971-1.865,18.555
	c15.793-1.862,31.85-2.279,47.461-1.135C181.285,54.762,181.818,51.692,182.789,48.842L182.789,48.842z M132.586,40.431
	c-13.729-0.505-27.268,0.474-40.119,2.997c-2.213,0.436-4.402,0.922-6.578,1.445c-2.082,7.829-2.783,16.395-2.182,25.415
	c14.855-5.048,30.814-8.694,47.096-10.806C130.426,52.752,131.01,46.338,132.586,40.431L132.586,40.431z M82.664,45.695
	c-12.27,3.285-23.752,8.085-33.97,14.466c-2.743,8.776-4.015,18.326-3.858,28.353c5.553-3.521,11.502-6.766,17.767-9.726
	c5.826-2.75,11.935-5.255,18.245-7.503C80.17,62.256,80.757,53.64,82.664,45.695L82.664,45.695z M44.947,62.609
	C34.41,69.824,25.373,78.838,18.433,89.721c-1.962,7.676-2.856,15.889-2.71,24.468c6.883-8.88,15.812-16.843,26.24-23.806
	C41.646,80.638,42.634,71.295,44.947,62.609L44.947,62.609z M13.83,97.835c-2.74,5.454-4.994,11.321-6.716,17.587
	c-1.044,4.282-1.892,8.6-2.54,12.941l0.045,0.006c-0.32,2.408-0.553,4.848-0.689,7.322c2.131-6.215,5.166-12.115,9.004-17.682
	C12.578,111.054,12.873,104.297,13.83,97.835L13.83,97.835z M289.855,112.176c-0.822-6.079-2.405-12.381-4.729-18.752
	c-5.129-4.662-10.762-8.557-16.807-11.742c0.127,0.533,0.236,1.057,0.338,1.58c0.359,1.844,0.602,3.658,0.719,5.449
	C277.543,95.387,284.48,103.189,289.855,112.176L289.855,112.176z M243.441,72.846c8.231,3.738,15.875,8.178,22.741,13.352
	c-0.11-0.788-0.241-1.578-0.392-2.373c-0.25-1.281-0.561-2.565-0.932-3.861C258.153,76.803,250.977,74.461,243.441,72.846
	L243.441,72.846z M293.295,118.537c0.646,1.317,1.256,2.659,1.834,4.026c-0.678-3.54-1.478-7.061-2.421-10.554
	C293.006,114.214,293.2,116.393,293.295,118.537L293.295,118.537z M219.523,67.31c-3.898-1.079-7.876-2.028-11.91-2.862
	c-7.636-1.561-15.498-2.685-23.497-3.389c0.091,1.921,0.335,3.887,0.722,5.884c0.184,0.94,0.395,1.895,0.645,2.845
	C197.084,67.934,208.512,67.043,219.523,67.31L219.523,67.31z M181.176,60.816c-15.537-1.16-31.535-0.762-47.263,1.092
	c0.284,3.122,0.78,6.309,1.483,9.547c0.752,3.492,1.742,7.041,2.966,10.612c1.21-0.43,2.417-0.856,3.631-1.267
	c13.454-4.581,27.12-8.189,40.596-10.529c-0.235-0.924-0.442-1.853-0.62-2.768C181.525,65.234,181.257,63.002,181.176,60.816
	L181.176,60.816z M131.01,62.268c-16.291,2.11-32.246,5.766-47.068,10.846c0.416,4.338,1.127,8.77,2.129,13.268
	c1.234,5.519,2.9,11.135,4.988,16.791c14.066-7.619,29.121-14.482,44.554-20.111c-1.271-3.695-2.296-7.367-3.075-10.986
	C131.818,68.756,131.309,65.479,131.01,62.268L131.01,62.268z M81.102,74.109c-6.041,2.164-11.88,4.576-17.455,7.203
	C57.01,84.447,50.739,87.908,44.93,91.68c0.262,5.842,0.98,11.82,2.17,17.896c1.193,6.12,2.862,12.338,4.979,18.584
	c8.107-6.177,17.033-12.197,26.56-17.906c3.203-1.926,6.49-3.812,9.827-5.662c-2.205-5.92-3.961-11.795-5.25-17.57
	C82.242,82.65,81.531,78.337,81.102,74.109L81.102,74.109z M42.105,93.564c-10.639,7.281-19.584,15.651-26.215,24.998
	c0.482,8.591,1.981,17.504,4.454,26.566c0.862,3.166,1.854,6.346,2.95,9.541c2.045-2.393,4.256-4.798,6.619-7.203
	c5.729-5.834,12.369-11.686,19.725-17.426c-2.318-6.689-4.119-13.342-5.402-19.9C43.143,104.529,42.424,98.988,42.105,93.564
	L42.105,93.564z M13.254,122.529c-4.738,7.634-7.965,15.874-9.348,24.672c0.502,9.621,2.277,19.57,5.28,29.588
	c2.47-6.256,6.536-12.817,11.927-19.496c-1.357-3.816-2.561-7.615-3.594-11.399C15.357,137.967,13.937,130.142,13.254,122.529
	L13.254,122.529z M282.832,87.664c-2.666-6.193-6.002-12.404-9.986-18.508c-2.756-1.994-6.443-3.109-10.91-3.439
	c2.313,4.042,4.116,8.151,5.373,12.219C272.814,80.616,278.01,83.849,282.832,87.664L282.832,87.664z M6.929,184.501
	c0.179-0.99,0.405-1.987,0.681-3c-1.357-4.113-2.52-8.224-3.471-12.312C4.794,174.328,5.732,179.438,6.929,184.501L6.929,184.501z
	 M237.902,68.931c9.074,1.438,17.711,3.831,25.75,7.317c-1.307-3.555-3.028-7.133-5.174-10.638c-2.859,0.03-5.969,0.319-9.314,0.853
	C245.644,67.027,241.872,67.855,237.902,68.931L237.902,68.931z M224.402,70.322c-12.223-0.721-25.064,0.092-38.139,2.154
	c1.273,3.953,3.074,7.949,5.398,11.877C203.193,78.703,214.246,73.929,224.402,70.322L224.402,70.322z M183.348,72.953
	c-13.466,2.307-27.146,5.916-40.619,10.504c-1.146,0.392-2.294,0.79-3.441,1.197c2.771,7.431,6.521,14.945,11.215,22.307
	c13.009-7.854,26.026-15.073,38.527-21.311C186.574,81.459,184.67,77.179,183.348,72.953L183.348,72.953z M136.537,85.645
	c-15.416,5.619-30.457,12.477-44.496,20.101c3.856,9.87,8.98,19.85,15.316,29.632c11.669-8.355,23.891-16.514,36.203-24.164
	c1.482-0.915,2.96-1.827,4.442-2.734C143.21,100.945,139.371,93.255,136.537,85.645L136.537,85.645z M89.445,107.163
	c-3.221,1.786-6.391,3.614-9.49,5.474c-9.691,5.81-18.746,11.939-26.943,18.217c4.074,11.334,9.629,22.759,16.596,33.924
	c10.713-9.172,22.701-18.533,35.367-27.688C98.572,127.216,93.379,117.146,89.445,107.163L89.445,107.163z M50.596,132.73
	c-6.983,5.491-13.292,11.074-18.754,16.633c-2.721,2.767-5.227,5.521-7.5,8.254c4.19,11.452,9.877,22.996,16.981,34.302
	c0.84-0.931,1.697-1.874,2.585-2.823c6.646-7.143,14.588-14.687,23.461-22.384C60.361,155.537,54.746,144.1,50.596,132.73
	L50.596,132.73z M22.199,160.26c-5.686,7.251-9.695,14.307-11.641,20.865c0.939,2.806,1.971,5.615,3.096,8.422
	c3.244,8.042,7.275,16.062,12.053,23.916c2.969-5.848,7.615-12.338,13.602-19.255C32.215,183.033,26.491,171.609,22.199,160.26
	L22.199,160.26z M9.403,186.625c-0.357,3.015-0.198,5.891,0.495,8.605c3.085,9.682,7.198,19.106,12.33,28.115
	c0.344-2.104,1.023-4.342,2.005-6.707c-5.321-8.521-9.759-17.248-13.285-26.001C10.408,189.299,9.898,187.963,9.403,186.625
	L9.403,186.625z M269.51,64.287c-4.174-5.818-8.926-11.504-14.257-16.928l-4.085,4.085c3.486,3.612,6.49,7.444,9.015,11.375
	C263.662,62.901,266.795,63.378,269.51,64.287L269.51,64.287z M236.012,66.607c4.571-1.291,8.895-2.273,12.91-2.916
	c2.736-0.436,5.334-0.712,7.782-0.824c-2.19-3.225-4.73-6.361-7.612-9.347L236.012,66.607L236.012,66.607z M226.184,72.592
	c-10.207,3.565-21.387,8.366-33.082,14.085c2.367,3.652,5.184,7.201,8.428,10.569L226.184,72.592L226.184,72.592z M190.461,87.978
	c-12.462,6.208-25.465,13.417-38.473,21.268c4.756,7.129,10.391,14.097,16.855,20.683l30.613-30.61
	C195.979,95.719,192.977,91.899,190.461,87.978L190.461,87.978z M149.49,110.765c-1.521,0.925-3.051,1.862-4.578,2.81
	c-12.259,7.622-24.438,15.752-36.062,24.069c6.621,9.908,14.484,19.597,23.525,28.758l34.405-34.407
	C160.141,125.244,154.364,118.086,149.49,110.765L149.49,110.765z M106.469,139.359c-12.693,9.171-24.697,18.552-35.393,27.725
	c7.486,11.636,16.516,22.967,27.016,33.6l32.215-32.216C121.155,159.202,113.191,149.389,106.469,139.359L106.469,139.359z
	 M68.837,169.02c-8.673,7.537-16.437,14.928-22.946,21.912c-1.053,1.133-2.068,2.248-3.055,3.355
	c7.652,11.799,16.857,23.301,27.537,34.115l25.648-25.65C85.479,192.08,76.393,180.705,68.837,169.02L68.837,169.02z
	 M40.838,196.572c-6.168,7.178-10.795,13.805-13.459,19.58c6.777,10.692,14.967,21.052,24.511,30.732l16.413-16.412
	C57.688,219.727,48.503,208.298,40.838,196.572L40.838,196.572z M26.035,219.467c-1.071,3.094-1.475,5.9-1.141,8.355
	c5.659,9.149,12.407,17.814,20.255,25.803l4.677-4.683C40.646,239.636,32.697,229.711,26.035,219.467L26.035,219.467z
	 M23.482,69.608c0.439-0.747,0.882-1.483,1.346-2.214l0.066,0.041c5.468-8.271,11.852-16.119,19.131-23.403
	C73.383,14.676,111.865,0,150.35,0c38.479,0,76.955,14.676,106.312,44.032c29.356,29.351,44.032,67.833,44.032,106.317
	c0,38.477-14.676,76.961-44.032,106.312c-29.356,29.356-67.833,44.032-106.312,44.032c-38.484,0-76.967-14.676-106.324-44.032
	C14.676,227.311,0,188.826,0,150.35C0,122.25,7.835,94.15,23.482,69.608L23.482,69.608z"/>
</svg>
