<?xml version="1.0" encoding="utf-8"?>
<!-- Generator: Adobe Illustrator 16.0.0, SVG Export Plug-In . SVG Version: 6.00 Build 0)  -->
<!DOCTYPE svg PUBLIC "-//W3C//DTD SVG 1.1//EN" "http://www.w3.org/Graphics/SVG/1.1/DTD/svg11.dtd">
<svg version="1.1" id="Layer_1" xmlns="http://www.w3.org/2000/svg" xmlns:xlink="http://www.w3.org/1999/xlink" x="0px" y="0px"
	 viewBox="0 0 54 55" enable-background="new 0 0 54 55" xml:space="preserve">
<g>
	<path fill="#02A8AB" d="M54,55H0V0h54V55z M1,54h52V1H1V54z"/>
	<g>
		<path fill="#FFBC1A" d="M15.5,48.11v-4.143c1,0.301,1.912,0.568,3.316,0.568c2.037,0,3.684-1.035,3.684-3.774V24.5h5v16.328
			c0,5.411-3.027,8.017-7.938,8.017C17.491,48.845,16.5,48.544,15.5,48.11z"/>
		<path fill="#FFBC1A" d="M30.863,41.5h5.178c0.233,2,1.136,3.689,4.676,3.689c2.372,0,3.941-1.412,3.941-3.283
			c0-1.904-1.002-2.626-4.51-3.161c-6.112-0.802-8.616-2.666-8.616-7.275c0-4.076,3.406-7.116,8.684-7.116
			c5.379,0,8.519,2.146,8.951,7.146H44.19c-0.334-2-1.603-3.186-3.975-3.186c-2.371,0-3.574,1.096-3.574,2.699
			c0,1.704,0.769,2.502,4.443,3.037c5.778,0.734,8.751,2.304,8.751,7.247c0,4.242-3.474,7.834-9.119,7.834
			C34.17,49.132,31.163,45.5,30.863,41.5z"/>
	</g>
</g>
</svg>
