<?xml version="1.0" encoding="utf-8"?>
<!-- Generator: Adobe Illustrator 16.0.0, SVG Export Plug-In . SVG Version: 6.00 Build 0)  -->
<!DOCTYPE svg PUBLIC "-//W3C//DTD SVG 1.1//EN" "http://www.w3.org/Graphics/SVG/1.1/DTD/svg11.dtd">
<svg version="1.1" id="Layer_1" xmlns="http://www.w3.org/2000/svg" xmlns:xlink="http://www.w3.org/1999/xlink" x="0px" y="0px"
	 viewBox="0 0 27.685 27.705" enable-background="new 0 0 27.685 27.705" xml:space="preserve">
<g>
	<path id="linkedin-square-icon_2_" fill="#FFBC1A" d="M6.265,27.705H0.551V9.233h5.714V27.705z M3.381,6.814
		C1.513,6.814,0,5.292,0,3.411C0,1.527,1.513,0,3.381,0c1.867,0,3.378,1.527,3.378,3.411C6.759,5.292,5.248,6.814,3.381,6.814z
		 M27.685,27.705H22c0,0,0-7.037,0-9.694c0-2.661-1.009-4.142-3.111-4.142c-2.29,0-3.486,1.543-3.486,4.142c0,2.845,0,9.694,0,9.694
		H9.92V9.233h5.482v2.491c0,0,1.652-3.05,5.562-3.05c3.918,0,6.72,2.39,6.72,7.336C27.685,20.956,27.685,27.705,27.685,27.705z"/>
</g>
<g>
	<path id="email-icon_2_" fill="#FFBC1A" d="M349.86,142.758l-9.466-7.271v16.734L349.86,142.758z M372.659,132.107h-32.153
		l16.064,12.34L372.659,132.107z M361.072,144.457l-4.503,3.454l-4.511-3.466l-11.623,11.623h32.25L361.072,144.457z
		 M363.272,142.77l9.473,9.473v-16.736L363.272,142.77z"/>
</g>
<g>
	<path fill="#02A8AB" d="M235.429,124.974v-4.651c0-1.033-0.837-1.871-1.87-1.871c-1.035,0-1.871,0.838-1.871,1.871v4.503h-8.73
		c-3.101,0-5.612,2.511-5.612,5.61v33.675c0,3.101,2.512,5.613,5.612,5.613h11.227c3.102,0,5.613-2.513,5.613-5.613v-33.675
		C239.797,127.767,237.929,125.542,235.429,124.974z M224.829,163.919c0,0.517-0.42,0.935-0.936,0.935h-1.872
		c-0.517,0-0.934-0.418-0.934-0.935v-1.872c0-0.516,0.417-0.935,0.934-0.935h1.872c0.516,0,0.936,0.419,0.936,0.935V163.919z
		 M224.829,157.937c0,0.515-0.42,0.934-0.936,0.934h-1.872c-0.517,0-0.934-0.419-0.934-0.934v-1.872c0-0.52,0.417-0.936,0.934-0.936
		h1.872c0.516,0,0.936,0.416,0.936,0.936V157.937z M224.829,151.951c0,0.517-0.42,0.936-0.936,0.936h-1.872
		c-0.517,0-0.934-0.419-0.934-0.936v-1.872c0-0.517,0.417-0.935,0.934-0.935h1.872c0.516,0,0.936,0.418,0.936,0.935V151.951z
		 M230.441,163.919c0,0.517-0.418,0.935-0.935,0.935h-1.872c-0.518,0-0.934-0.418-0.934-0.935v-1.872
		c0-0.516,0.416-0.935,0.934-0.935h1.872c0.517,0,0.935,0.419,0.935,0.935V163.919z M230.441,157.937
		c0,0.515-0.418,0.934-0.935,0.934h-1.872c-0.518,0-0.934-0.419-0.934-0.934v-1.872c0-0.52,0.416-0.936,0.934-0.936h1.872
		c0.517,0,0.935,0.416,0.935,0.936V157.937z M230.441,151.951c0,0.517-0.418,0.936-0.935,0.936h-1.872
		c-0.518,0-0.934-0.419-0.934-0.936v-1.872c0-0.517,0.416-0.935,0.934-0.935h1.872c0.517,0,0.935,0.418,0.935,0.935V151.951z
		 M236.054,163.919c0,0.517-0.419,0.935-0.935,0.935h-1.871c-0.517,0-0.937-0.418-0.937-0.935v-1.872
		c0-0.516,0.42-0.935,0.937-0.935h1.871c0.516,0,0.935,0.419,0.935,0.935V163.919z M236.054,157.937
		c0,0.515-0.419,0.934-0.935,0.934h-1.871c-0.517,0-0.937-0.419-0.937-0.934v-1.872c0-0.52,0.42-0.936,0.937-0.936h1.871
		c0.516,0,0.935,0.416,0.935,0.936V157.937z M236.054,151.951c0,0.517-0.419,0.936-0.935,0.936h-1.871
		c-0.517,0-0.937-0.419-0.937-0.936v-1.872c0-0.517,0.42-0.935,0.937-0.935h1.871c0.516,0,0.935,0.418,0.935,0.935V151.951z
		 M236.054,142.979c0,1.033-0.838,1.871-1.87,1.871h-11.227c-1.032,0-1.869-0.838-1.869-1.871v-11.225
		c0-1.035,0.837-1.871,1.869-1.871h11.227c1.032,0,1.87,0.836,1.87,1.871V142.979z"/>
</g>
</svg>
