<?xml version="1.0" encoding="utf-8"?>
<!-- Generator: Adobe Illustrator 16.0.0, SVG Export Plug-In . SVG Version: 6.00 Build 0)  -->
<!DOCTYPE svg PUBLIC "-//W3C//DTD SVG 1.1//EN" "http://www.w3.org/Graphics/SVG/1.1/DTD/svg11.dtd">
<svg version="1.1" id="Layer_1" xmlns="http://www.w3.org/2000/svg" xmlns:xlink="http://www.w3.org/1999/xlink" x="0px" y="0px"
	 viewBox="0 0 42.163 45.295" enable-background="new 0 0 42.163 45.295" xml:space="preserve">
<g>
	<g>
		<path fill="#02A8AB" d="M38.564,45.295c-0.915,0-1.83-0.346-2.53-1.04L21.816,30.206c-1.414-1.396-1.43-3.675-0.03-5.09
			c1.397-1.414,3.677-1.429,5.091-0.029l14.217,14.049c1.412,1.396,1.428,3.675,0.031,5.09
			C40.422,44.938,39.491,45.295,38.564,45.295z"/>
		<path fill="#FFBC1A" d="M15.619,31.239C7.006,31.239,0,24.233,0,15.62C0,7.008,7.006,0,15.619,0S31.24,7.008,31.24,15.62
			C31.24,24.233,24.232,31.239,15.619,31.239z M15.619,4.801c-5.965,0-10.82,4.853-10.82,10.819s4.855,10.821,10.82,10.821
			c5.968,0,10.82-4.854,10.82-10.821S21.587,4.801,15.619,4.801z"/>
	</g>
</g>
</svg>
