<?xml version="1.0" encoding="utf-8"?>
<!-- Generator: Adobe Illustrator 16.0.0, SVG Export Plug-In . SVG Version: 6.00 Build 0)  -->
<!DOCTYPE svg PUBLIC "-//W3C//DTD SVG 1.1//EN" "http://www.w3.org/Graphics/SVG/1.1/DTD/svg11.dtd">
<svg version="1.1" id="Layer_1" xmlns="http://www.w3.org/2000/svg" xmlns:xlink="http://www.w3.org/1999/xlink" x="0px" y="0px"
	 viewBox="0 0 22.452 51.272" enable-background="new 0 0 22.452 51.272" xml:space="preserve">
<g>
	<path fill="#02A8AB" d="M18.084,6.522V1.871c0-1.033-0.837-1.871-1.87-1.871c-1.035,0-1.871,0.838-1.871,1.871v4.503h-8.73
		C2.512,6.374,0,8.885,0,11.984v33.675c0,3.101,2.512,5.613,5.612,5.613h11.227c3.102,0,5.613-2.513,5.613-5.613V11.984
		C22.452,9.315,20.584,7.091,18.084,6.522z M7.484,45.468c0,0.517-0.42,0.935-0.936,0.935H4.677c-0.517,0-0.934-0.418-0.934-0.935
		v-1.872c0-0.516,0.417-0.935,0.934-0.935h1.872c0.516,0,0.936,0.419,0.936,0.935V45.468z M7.484,39.485
		c0,0.515-0.42,0.934-0.936,0.934H4.677c-0.517,0-0.934-0.419-0.934-0.934v-1.872c0-0.52,0.417-0.936,0.934-0.936h1.872
		c0.516,0,0.936,0.416,0.936,0.936V39.485z M7.484,33.5c0,0.517-0.42,0.936-0.936,0.936H4.677c-0.517,0-0.934-0.419-0.934-0.936
		v-1.872c0-0.517,0.417-0.935,0.934-0.935h1.872c0.516,0,0.936,0.418,0.936,0.935V33.5z M13.097,45.468
		c0,0.517-0.418,0.935-0.935,0.935H10.29c-0.518,0-0.934-0.418-0.934-0.935v-1.872c0-0.516,0.416-0.935,0.934-0.935h1.872
		c0.517,0,0.935,0.419,0.935,0.935V45.468z M13.097,39.485c0,0.515-0.418,0.934-0.935,0.934H10.29c-0.518,0-0.934-0.419-0.934-0.934
		v-1.872c0-0.52,0.416-0.936,0.934-0.936h1.872c0.517,0,0.935,0.416,0.935,0.936V39.485z M13.097,33.5
		c0,0.517-0.418,0.936-0.935,0.936H10.29c-0.518,0-0.934-0.419-0.934-0.936v-1.872c0-0.517,0.416-0.935,0.934-0.935h1.872
		c0.517,0,0.935,0.418,0.935,0.935V33.5z M18.709,45.468c0,0.517-0.419,0.935-0.935,0.935h-1.871c-0.517,0-0.937-0.418-0.937-0.935
		v-1.872c0-0.516,0.42-0.935,0.937-0.935h1.871c0.516,0,0.935,0.419,0.935,0.935V45.468z M18.709,39.485
		c0,0.515-0.419,0.934-0.935,0.934h-1.871c-0.517,0-0.937-0.419-0.937-0.934v-1.872c0-0.52,0.42-0.936,0.937-0.936h1.871
		c0.516,0,0.935,0.416,0.935,0.936V39.485z M18.709,33.5c0,0.517-0.419,0.936-0.935,0.936h-1.871c-0.517,0-0.937-0.419-0.937-0.936
		v-1.872c0-0.517,0.42-0.935,0.937-0.935h1.871c0.516,0,0.935,0.418,0.935,0.935V33.5z M18.709,24.527
		c0,1.033-0.838,1.871-1.87,1.871H5.612c-1.032,0-1.869-0.838-1.869-1.871V13.303c0-1.035,0.837-1.871,1.869-1.871h11.227
		c1.032,0,1.87,0.836,1.87,1.871V24.527z"/>
</g>
</svg>
