<?xml version="1.0" encoding="utf-8"?>
<!-- Generator: Adobe Illustrator 16.0.0, SVG Export Plug-In . SVG Version: 6.00 Build 0)  -->
<!DOCTYPE svg PUBLIC "-//W3C//DTD SVG 1.1//EN" "http://www.w3.org/Graphics/SVG/1.1/DTD/svg11.dtd">
<svg version="1.1" id="Layer_1" xmlns="http://www.w3.org/2000/svg" xmlns:xlink="http://www.w3.org/1999/xlink" x="0px" y="0px"
	 viewBox="0 0 47 48.105" enable-background="new 0 0 47 48.105" xml:space="preserve">
<g>
	<path fill="#02A8AB" d="M0,10.444c0,0,0,4.948,0,7.825c0,6.067,3.653,14.175,12.199,16.175h6.816
		C27.564,32.444,31,24.336,31,18.269c0-6.231,0-7.825,0-7.825H0z"/>
	<path fill="#02A8AB" d="M20,10.444h-9"/>
</g>
<path fill="#FFBC1A" d="M12,34.444v0.874c0,7.063,5.935,12.788,12.997,12.788C32.062,48.105,38,42.381,38,35.318v-3.874h-0.232
	c0-4,2.676-6,5.97-6H47v-7h-3.263C36.679,18.444,31,23.995,31,31.058v4.26c0,3.297-2.702,5.968-6.001,5.968
	c-3.292,0-5.999-2.671-5.999-5.968v-0.874H12z"/>
<path fill="#FFBC1A" d="M11,10.444c0,0,0-7.558,0-8.316C11,0.951,10.179,0,9.002,0S7,0.951,7,2.128s0,8.316,0,8.316H11z"/>
<path fill="#FFBC1A" d="M24,10.444c0,0,0-7.558,0-8.316C24,0.951,23.18,0,22.002,0C20.826,0,20,0.951,20,2.128s0,8.316,0,8.316H24z"
	/>
<rect x="20" y="10.444" fill="#027D12" width="4" height="8"/>
<rect x="7" y="10.444" fill="#027D12" width="4" height="8"/>
</svg>
