<?xml version="1.0" encoding="utf-8"?>
<!-- Generator: Adobe Illustrator 16.0.0, SVG Export Plug-In . SVG Version: 6.00 Build 0)  -->
<!DOCTYPE svg PUBLIC "-//W3C//DTD SVG 1.1//EN" "http://www.w3.org/Graphics/SVG/1.1/DTD/svg11.dtd">
<svg version="1.1" id="Layer_1" xmlns="http://www.w3.org/2000/svg" xmlns:xlink="http://www.w3.org/1999/xlink" x="0px" y="0px"
	 viewBox="0 0 67 63.031" enable-background="new 0 0 67 63.031" xml:space="preserve">
<path fill="#FFBC1A" d="M17,0l-2.246,0.299C10.411,0.829,6.778,2.866,4.08,6.522C1.516,10.002,0,14.899,0,21.081v14.174h17v-17
	h-5.874c0.034-1,0.245-2.622,0.646-3.848c1.037-3.227,2.078-4.057,3.628-4.33L17,9.77V0L17,0z M38,0.021l-2.709,0.277
	c-5.264,0.599-9.294,2.948-11.669,7.395C21.533,11.595,20,16.1,20,21.081v14.174h18v-17h-7.222c0.046-2,0.534-3.999,1.446-5.7
	c0.696-1.293,2.254-2.214,3.707-2.479L38,9.756V0.021L38,0.021z"/>
<path fill="#02A8AB" d="M67,27.255H50v18h6.259c-0.106,0-0.323,1.724-0.622,2.937c-0.489,1.959-1.451,4.289-4.02,4.776L50,53.183
	v9.729l2.273-0.278c5.28-0.602,9.158-3.025,11.455-7.41C65.773,51.324,67,46.825,67,41.85V27.255L67,27.255z M47,27.255H30v18h6.842
	c-0.03,0-0.181,1.792-0.462,2.937c-1.133,4.351-3.595,4.642-4.308,4.776L30,53.183v9.849l2.832-0.413
	c4.922-0.799,9.045-3.582,11.09-7.444C45.989,51.272,47,46.789,47,41.85V27.255L47,27.255z"/>
<path fill="#027D12" d="M30,27.255v8h8v-8H30z"/>
</svg>
