<?xml version="1.0" encoding="utf-8"?>
<!-- Generator: Adobe Illustrator 16.0.0, SVG Export Plug-In . SVG Version: 6.00 Build 0)  -->
<!DOCTYPE svg PUBLIC "-//W3C//DTD SVG 1.1//EN" "http://www.w3.org/Graphics/SVG/1.1/DTD/svg11.dtd">
<svg version="1.1" id="Layer_1" xmlns="http://www.w3.org/2000/svg" xmlns:xlink="http://www.w3.org/1999/xlink" x="0px" y="0px"
	 viewBox="0 0 65.947 65.043" enable-background="new 0 0 65.947 65.043" xml:space="preserve">
<circle fill="#FFBC1A" cx="24.186" cy="59.91" r="1.488"/>
<path fill="#FFBC1A" d="M42.029,5.728H6.344c-0.34,0-0.615,0.275-0.615,0.616v48.781c0,0.34,0.275,0.617,0.615,0.617h35.686
	c0.34,0,0.615-0.277,0.615-0.617V6.344C42.645,6.003,42.369,5.728,42.029,5.728z"/>
<path fill="#FFBC1A" d="M44.43,0H3.941C1.768,0,0,1.768,0,3.94v57.161c0,2.173,1.768,3.941,3.941,3.941H44.43
	c2.174,0,3.941-1.768,3.941-3.941V3.94C48.371,1.768,46.604,0,44.43,0z M44.439,63.113h-0.01H3.941
	c-1.109,0-2.014-0.901-2.014-2.012V3.94c0-1.11,0.904-2.013,2.014-2.013H44.43c1.109,0,2.014,0.902,2.014,2.013v57.161
	C46.443,62.207,45.547,63.107,44.439,63.113z"/>
<g>
	<path fill="#02A8AB" d="M62.006,65.043h-19.27c-2.174,0-3.941-1.769-3.941-3.941V24.195c0-2.173,1.768-3.941,3.941-3.941h19.27
		c2.172,0,3.941,1.769,3.941,3.941v36.906C65.947,63.274,64.178,65.043,62.006,65.043z M42.736,22.185
		c-1.109,0-2.012,0.9-2.012,2.011v36.906c0,1.11,0.902,2.012,2.012,2.012h19.27c1.109,0,2.012-0.901,2.012-2.012V24.195
		c0-1.11-0.902-2.011-2.012-2.011H42.736z"/>
	<path fill="#02A8AB" d="M61.184,54.78c0,0.339-0.275,0.616-0.615,0.616H44.174c-0.338,0-0.615-0.277-0.615-0.616V26.254
		c0-0.34,0.277-0.618,0.615-0.618h16.395c0.34,0,0.615,0.278,0.615,0.618V54.78z"/>
	<circle fill="#02A8AB" cx="52.488" cy="59.91" r="1.488"/>
</g>
<g>
	<g>
		<path fill="#027D12" d="M47.895,63.113h-3.361h-0.01H42.83h-3.371c0.689,1.15,1.936,1.93,3.371,1.93h1.693
			C45.959,65.043,47.205,64.264,47.895,63.113z"/>
		<rect x="46.442" y="20.254" fill="#027D12" width="1.93" height="1.931"/>
	</g>
</g>
<rect x="46.443" y="25.636" fill="#027D12" width="1.928" height="29.761"/>
<path fill="#027D12" d="M40.723,55.742V24.195c0-1.078,0.855-1.952,1.92-2.002v-1.93c-2.129,0.051-3.848,1.791-3.848,3.932v31.547
	H40.723z"/>
</svg>
