<?xml version="1.0" encoding="utf-8"?>
<!-- Generator: Adobe Illustrator 16.0.0, SVG Export Plug-In . SVG Version: 6.00 Build 0)  -->
<!DOCTYPE svg PUBLIC "-//W3C//DTD SVG 1.1//EN" "http://www.w3.org/Graphics/SVG/1.1/DTD/svg11.dtd">
<svg version="1.1" id="Layer_1" xmlns="http://www.w3.org/2000/svg" xmlns:xlink="http://www.w3.org/1999/xlink" x="0px" y="0px"
	 viewBox="0 0 54.736 58.801" enable-background="new 0 0 54.736 58.801" xml:space="preserve">
<path fill="#02A8AB" d="M9.959,0H4.336C2.032,0,0,1.897,0,4.133c0,0,0,0,0,0.067c0,0.136,0.203,0.339,0.203,0.474l4.605,41.323
	c0.068,0.609,0.272,1.151,0.61,1.626c0.406,0.812,1.083,1.422,1.897,1.828l18.223,8.942c0.608,0.27,1.219,0.407,1.829,0.407V0H9.959
	z M16.123,28.181l6.909,6.91c1.354,1.354,1.354,3.59,0,4.944s-3.591,1.354-4.945,0L7.993,29.942c0,0-0.136,0-0.136-0.067
	c-0.541-0.542-1.083-1.152-1.083-1.83l0,0c0-0.203,0.067-0.406,0.067-0.677c0-0.881,0.406-1.829,1.084-2.507
	c0,0,0.067,0,0.067-0.067l3.251-3.252l6.91-6.909c1.355-1.355,3.59-1.355,4.945,0c1.354,1.354,1.354,3.59,0,4.944l-7.722,7.858
	L16.123,28.181z"/>
<path fill="#FFBC1A" d="M27.368,0v58.801c0.61,0,1.221-0.138,1.829-0.407l18.223-8.942c0.814-0.406,1.491-1.016,1.897-1.828
	c0.338-0.475,0.542-1.017,0.61-1.626l4.605-41.323c0-0.135,0.203-0.338,0.203-0.474c0-0.067,0-0.067,0-0.067
	C54.736,1.897,52.704,0,50.4,0h-5.623H27.368z M39.358,27.436l-7.722-7.858c-1.354-1.354-1.354-3.59,0-4.944
	c1.355-1.355,3.59-1.355,4.945,0l6.91,6.909l3.251,3.252c0,0.067,0.067,0.067,0.067,0.067c0.678,0.678,1.084,1.626,1.084,2.507
	c0,0.271,0.067,0.474,0.067,0.677l0,0c0,0.678-0.542,1.288-1.083,1.83c0,0.067-0.136,0.067-0.136,0.067L36.649,40.035
	c-1.354,1.354-3.591,1.354-4.945,0s-1.354-3.59,0-4.944l6.909-6.91L39.358,27.436z"/>
</svg>
