<?xml version="1.0" encoding="utf-8"?>
<!-- Generator: Adobe Illustrator 16.0.0, SVG Export Plug-In . SVG Version: 6.00 Build 0)  -->
<!DOCTYPE svg PUBLIC "-//W3C//DTD SVG 1.1//EN" "http://www.w3.org/Graphics/SVG/1.1/DTD/svg11.dtd">
<svg version="1.1" id="Layer_1" xmlns="http://www.w3.org/2000/svg" xmlns:xlink="http://www.w3.org/1999/xlink" x="0px" y="0px"
	 viewBox="0 0 58.947 58.861" enable-background="new 0 0 58.947 58.861" xml:space="preserve">
<g>
	<path fill="#FFBC1A" d="M18.515,27.617l-1.195,2.476l1.252,10.055l10.273,1.471l2.482-1.188l20.52-20.52
		c6.412-6.412,7.01-17.964,7.033-18.449L58.947,0l-1.461,0.067C56.998,0.09,45.449,0.688,39.036,7.1L18.515,27.617z M46.541,16.817
		c-1.218,1.217-3.193,1.217-4.41,0c-1.218-1.22-1.218-3.195,0-4.412c1.217-1.22,3.192-1.222,4.41,0
		C47.759,13.622,47.761,15.598,46.541,16.817z"/>
	<path fill="#02A8AB" d="M39.768,32.013l-8.406,8.406l-2.483,1.189c4.756,5.348-0.497,15.59-0.553,15.695l2.122,1.558
		c15.339-15.339,12.765-25.788,11.415-28.944L39.768,32.013z"/>
	<path fill="#02A8AB" d="M28.947,17.048C25.792,15.7,15.342,13.123,0,28.464l1.56,2.122c0.106-0.056,10.321-5.319,15.688-0.563
		l1.195-2.475l8.397-8.395L28.947,17.048z"/>
	<circle fill="#027D12" cx="44.336" cy="14.611" r="3.119"/>
</g>
</svg>
