<?xml version="1.0" encoding="utf-8"?>
<!-- Generator: Adobe Illustrator 16.0.0, SVG Export Plug-In . SVG Version: 6.00 Build 0)  -->
<!DOCTYPE svg PUBLIC "-//W3C//DTD SVG 1.1//EN" "http://www.w3.org/Graphics/SVG/1.1/DTD/svg11.dtd">
<svg version="1.1" id="Layer_1" xmlns="http://www.w3.org/2000/svg" xmlns:xlink="http://www.w3.org/1999/xlink" x="0px" y="0px"
	 viewBox="0 0 58.631 58.631" enable-background="new 0 0 58.631 58.631" xml:space="preserve">
<g>
	
		<rect x="27.807" y="1.521" transform="matrix(0.7071 0.7071 -0.7071 0.7071 29.3184 -12.1343)" fill="#FFBC1A" width="3" height="55.605"/>
	
		<rect x="1.501" y="27.815" transform="matrix(0.7071 0.7071 -0.7071 0.7071 29.3147 -12.1431)" fill="#FFBC1A" width="55.629" height="3"/>
	<circle fill="#02A8AB" cx="29.315" cy="29.314" r="7.164"/>
	<path fill="#02A8AB" d="M29.315,47.672c-10.122,0-18.357-8.234-18.357-18.357c0-10.121,8.235-18.357,18.357-18.357
		s18.357,8.236,18.357,18.357C47.673,39.438,39.438,47.672,29.315,47.672z M29.315,13.957c-8.468,0-15.357,6.891-15.357,15.357
		c0,8.469,6.89,15.357,15.357,15.357s15.357-6.889,15.357-15.357C44.673,20.848,37.783,13.957,29.315,13.957z"/>
	<path fill="#02A8AB" d="M29.315,58.631C13.15,58.631,0,45.48,0,29.314C0,13.15,13.15,0,29.315,0s29.315,13.15,29.315,29.314
		C58.631,45.48,45.48,58.631,29.315,58.631z M29.315,3C14.805,3,3,14.805,3,29.314c0,14.512,11.805,26.316,26.315,26.316
		s26.315-11.805,26.315-26.316C55.631,14.805,43.826,3,29.315,3z"/>
	<path fill="#027D12" d="M33.338,23.305l-9.9,9.9c0.55,0.848,1.272,1.57,2.121,2.121l9.9-9.9
		C34.909,24.578,34.187,23.854,33.338,23.305z"/>
	<path fill="#027D12" d="M41.311,39.057c-0.637,0.773-1.347,1.484-2.121,2.121l2.122,2.121c0.764-0.648,1.473-1.357,2.121-2.121
		L41.311,39.057z"/>
	<path fill="#027D12" d="M17.586,19.574c0.637-0.773,1.347-1.484,2.121-2.121l-2.122-2.123c-0.764,0.648-1.473,1.357-2.121,2.121
		L17.586,19.574z"/>
	<path fill="#027D12" d="M25.559,23.305c-0.849,0.549-1.571,1.273-2.121,2.121l9.9,9.9c0.849-0.551,1.571-1.273,2.121-2.121
		L25.559,23.305z"/>
	<path fill="#027D12" d="M17.586,39.057l-2.122,2.121c0.648,0.764,1.357,1.473,2.121,2.121l2.122-2.121
		C18.933,40.541,18.223,39.83,17.586,39.057z"/>
	<path fill="#027D12" d="M41.312,15.33l-2.122,2.123c0.774,0.637,1.484,1.348,2.121,2.121l2.122-2.123
		C42.784,16.688,42.075,15.979,41.312,15.33z"/>
</g>
</svg>
