<?xml version="1.0" encoding="utf-8"?>
<!-- Generator: Adobe Illustrator 16.0.0, SVG Export Plug-In . SVG Version: 6.00 Build 0)  -->
<!DOCTYPE svg PUBLIC "-//W3C//DTD SVG 1.1//EN" "http://www.w3.org/Graphics/SVG/1.1/DTD/svg11.dtd">
<svg version="1.1" id="Layer_1" xmlns="http://www.w3.org/2000/svg" xmlns:xlink="http://www.w3.org/1999/xlink" x="0px" y="0px"
	 viewBox="0 0 61.023 53.23" enable-background="new 0 0 61.023 53.23" xml:space="preserve">
<path fill="#FFBC1A" d="M46.205,51.792c1.834,1.904,4.769,1.904,6.676,0.072c1.834-1.906,1.907-4.84,0.074-6.676L20.321,14.876
	c-1.685-1.832-2.128-2.566-1.685-4.693c0.514-2.348,0.104-6.654-3.889-8.951c-4.589-2.639-9.243-0.219-9.243-0.219L5.139,1.599
	c0,0,4.108,2.715,4.622,3.008c0.586,0.369,2.346,2.348,0.219,5.504c-2.057,3.154-4.328,2.125-4.987,1.613
	c-0.514-0.293-4.623-2.934-4.623-2.934L0.004,9.376c0,0-0.295,5.5,4.252,8.436c2.128,1.393,4.404,1.393,6.018,0.807
	c1.613-0.514,2.785,0.074,4.768,1.98L46.205,51.792z"/>
<g>
	<polygon fill="#02A8AB" points="35.02,23.984 9.763,49.24 7.973,52.207 8.813,53.048 11.781,51.259 37.037,26.003 	"/>
</g>
<g>
	<path fill="#02A8AB" d="M59.523,1.498c-1.919-1.92-4.927-2.035-6.846-0.117L37.912,16.146c-0.17,0.17-0.17,0.445,0,0.617
		c0.501,0.502,0.501,1.312,0,1.814c-0.5,0.5-1.312,0.502-1.816,0c-0.168-0.17-0.443-0.17-0.615,0l-1.7,1.701
		c-0.141,0.141-0.157,0.354-0.063,0.52l6.505,6.506c0.167,0.096,0.38,0.078,0.521-0.062l1.701-1.701
		c0.168-0.17,0.168-0.445-0.002-0.615c-0.501-0.502-0.501-1.314,0-1.816c0.5-0.502,1.314-0.5,1.816,0c0.166,0.17,0.444,0.17,0.615,0
		L59.639,8.345C61.561,6.425,61.443,3.419,59.523,1.498z"/>
</g>
<polygon fill="#027D12" points="28.718,34.29 34.739,28.269 32.646,26.323 26.7,32.269 "/>
</svg>
