<?xml version="1.0" encoding="utf-8"?>
<!-- Generator: Adobe Illustrator 16.0.0, SVG Export Plug-In . SVG Version: 6.00 Build 0)  -->
<!DOCTYPE svg PUBLIC "-//W3C//DTD SVG 1.1//EN" "http://www.w3.org/Graphics/SVG/1.1/DTD/svg11.dtd">
<svg version="1.1" id="Layer_1" xmlns="http://www.w3.org/2000/svg" xmlns:xlink="http://www.w3.org/1999/xlink" x="0px" y="0px"
	 viewBox="0 0 29.556 24.021" enable-background="new 0 0 29.556 24.021" xml:space="preserve">
<g>
	<path id="linkedin-square-icon_2_" fill="#FFBD00" d="M220.994,26.519h-5.714V8.047h5.714V26.519z M218.11,5.628
		c-1.868,0-3.381-1.522-3.381-3.403c0-1.884,1.513-3.411,3.381-3.411c1.867,0,3.378,1.527,3.378,3.411
		C221.488,4.105,219.978,5.628,218.11,5.628z M242.414,26.519h-5.685c0,0,0-7.037,0-9.694c0-2.661-1.009-4.142-3.111-4.142
		c-2.29,0-3.486,1.543-3.486,4.142c0,2.845,0,9.694,0,9.694h-5.482V8.047h5.482v2.491c0,0,1.652-3.05,5.562-3.05
		c3.918,0,6.72,2.39,6.72,7.336C242.414,19.77,242.414,26.519,242.414,26.519z"/>
</g>
<g>
	<g>
		<g>
			<g id="twitter-2-icon_10_">
				<g>
					<path fill="#02A8AB" d="M26.532,5.983c0.381,8.527-5.979,18.037-17.234,18.037c-3.431,0-6.615-1.006-9.298-2.727
						c3.218,0.382,6.426-0.512,8.979-2.511c-2.655-0.049-4.893-1.801-5.667-4.21c0.948,0.181,1.887,0.13,2.738-0.105
						c-2.916-0.584-4.928-3.212-4.863-6.02c0.817,0.451,1.753,0.725,2.748,0.757C1.231,7.401,0.471,3.836,2.061,1.109
						c2.987,3.669,7.455,6.084,12.493,6.334C13.672,3.652,16.55,0,20.462,0c1.748,0,3.323,0.735,4.428,1.914
						c1.383-0.271,2.677-0.776,3.85-1.472c-0.449,1.416-1.414,2.604-2.669,3.355c1.229-0.147,2.395-0.473,3.485-0.954
						C28.743,4.058,27.714,5.127,26.532,5.983z"/>
				</g>
			</g>
		</g>
	</g>
</g>
<g>
	<path id="email-icon_2_" fill="#FFBD00" d="M349.86,139.073l-9.466-7.271v16.734L349.86,139.073z M372.659,128.423h-32.153
		l16.064,12.34L372.659,128.423z M361.072,140.772l-4.503,3.454l-4.511-3.466l-11.623,11.623h32.25L361.072,140.772z
		 M363.272,139.085l9.473,9.473v-16.736L363.272,139.085z"/>
</g>
<g>
	<path fill="#00AAAD" d="M235.429,121.289v-4.651c0-1.033-0.837-1.871-1.87-1.871c-1.035,0-1.871,0.838-1.871,1.871v4.503h-8.73
		c-3.101,0-5.612,2.511-5.612,5.61v33.675c0,3.101,2.512,5.613,5.612,5.613h11.227c3.102,0,5.613-2.513,5.613-5.613v-33.675
		C239.797,124.082,237.929,121.857,235.429,121.289z M224.829,160.234c0,0.517-0.42,0.935-0.936,0.935h-1.872
		c-0.517,0-0.934-0.418-0.934-0.935v-1.872c0-0.516,0.417-0.935,0.934-0.935h1.872c0.516,0,0.936,0.419,0.936,0.935V160.234z
		 M224.829,154.252c0,0.515-0.42,0.934-0.936,0.934h-1.872c-0.517,0-0.934-0.419-0.934-0.934v-1.872c0-0.52,0.417-0.936,0.934-0.936
		h1.872c0.516,0,0.936,0.416,0.936,0.936V154.252z M224.829,148.267c0,0.517-0.42,0.936-0.936,0.936h-1.872
		c-0.517,0-0.934-0.419-0.934-0.936v-1.872c0-0.517,0.417-0.935,0.934-0.935h1.872c0.516,0,0.936,0.418,0.936,0.935V148.267z
		 M230.441,160.234c0,0.517-0.418,0.935-0.935,0.935h-1.872c-0.518,0-0.934-0.418-0.934-0.935v-1.872
		c0-0.516,0.416-0.935,0.934-0.935h1.872c0.517,0,0.935,0.419,0.935,0.935V160.234z M230.441,154.252
		c0,0.515-0.418,0.934-0.935,0.934h-1.872c-0.518,0-0.934-0.419-0.934-0.934v-1.872c0-0.52,0.416-0.936,0.934-0.936h1.872
		c0.517,0,0.935,0.416,0.935,0.936V154.252z M230.441,148.267c0,0.517-0.418,0.936-0.935,0.936h-1.872
		c-0.518,0-0.934-0.419-0.934-0.936v-1.872c0-0.517,0.416-0.935,0.934-0.935h1.872c0.517,0,0.935,0.418,0.935,0.935V148.267z
		 M236.054,160.234c0,0.517-0.419,0.935-0.935,0.935h-1.871c-0.517,0-0.937-0.418-0.937-0.935v-1.872
		c0-0.516,0.42-0.935,0.937-0.935h1.871c0.516,0,0.935,0.419,0.935,0.935V160.234z M236.054,154.252
		c0,0.515-0.419,0.934-0.935,0.934h-1.871c-0.517,0-0.937-0.419-0.937-0.934v-1.872c0-0.52,0.42-0.936,0.937-0.936h1.871
		c0.516,0,0.935,0.416,0.935,0.936V154.252z M236.054,148.267c0,0.517-0.419,0.936-0.935,0.936h-1.871
		c-0.517,0-0.937-0.419-0.937-0.936v-1.872c0-0.517,0.42-0.935,0.937-0.935h1.871c0.516,0,0.935,0.418,0.935,0.935V148.267z
		 M236.054,139.294c0,1.033-0.838,1.871-1.87,1.871h-11.227c-1.032,0-1.869-0.838-1.869-1.871v-11.225
		c0-1.035,0.837-1.871,1.869-1.871h11.227c1.032,0,1.87,0.836,1.87,1.871V139.294z"/>
</g>
</svg>
