<?xml version="1.0" encoding="utf-8"?>
<!-- Generator: Adobe Illustrator 16.0.0, SVG Export Plug-In . SVG Version: 6.00 Build 0)  -->
<!DOCTYPE svg PUBLIC "-//W3C//DTD SVG 1.1//EN" "http://www.w3.org/Graphics/SVG/1.1/DTD/svg11.dtd">
<svg version="1.1" id="Layer_1" xmlns="http://www.w3.org/2000/svg" xmlns:xlink="http://www.w3.org/1999/xlink" x="0px" y="0px"
	 viewBox="0 0 68.079 44.493" enable-background="new 0 0 68.079 44.493" xml:space="preserve">
<g>
	<path fill="#02A8AB" d="M42.208,44.493c0.012-2-0.1-5.392-0.1-6.792c-0.7-2.234-3.02-2.634-4.956-3.534
		c-2.128-0.988-4.486-2.188-6.609-3.146c-0.606-0.182-1.212-0.395-1.817-0.576c-0.723-0.547-1.432-2.388-1.817-3.294l-0.513-0.152
		l-1.621,0.088c1.006-0.9,2.484-1.708,2.977-2.634l0.885-5.048l0.371,0.013c0.573,0.021,1.18-0.17,1.196-1.139l0.08-4.975
		c0.015-0.355-0.371-0.771-0.807-1.064c-0.081-0.035-0.157-0.07-0.234-0.104c0.134-1.625,0.136-2.996,0.026-4.148
		c0.021-0.211,0.037-0.436,0.045-0.682c0.058-2.215-2.149-6.494-7.654-7.029c-3.515-0.342-7.006,1.582-7.304,3.707
		c-0.201,0-0.438,0.037-0.724,0.119c-0.862,0.246-1.697,1.539-1.826,3.793c-0.143,2.482-0.023,3.666,0.242,4.23
		c-0.061,0.029-0.123,0.061-0.182,0.086c-0.483,0.291-0.943,0.752-0.928,1.141l0.083,4.975c0.015,0.969,0.624,1.16,1.194,1.139
		l0.375-0.016l0.889,5.049c0.564,1.066,2.44,1.969,3.398,3.045l-1.787,0.104c-0.404,0.961-1.001,2.318-1.608,2.777
		c-0.605,0.184-1.212,0.361-1.816,0.543c-2.123,0.957-4.481,2.1-6.609,3.088C3.12,34.954,0.7,35.531,0,37.767
		c0,1.398-0.009,4.726,0,6.726H42.208z"/>
	<path fill="#FFBC1A" d="M68.079,44.493c0.007-2-0.1-5.888-0.1-7.263c-0.7-2.236-3.02-2.433-4.957-3.333
		c-2.127-0.986-4.486-2.07-6.608-3.027c-0.605-0.182-1.212-0.335-1.816-0.515c-0.725-0.549-1.559-2.354-1.945-3.259
		c-0.383-0.059-0.279-0.129-1.279-0.189c0-0.002,0-0.414,0-0.414h-0.483c1.005-1,2.525-1.535,3.023-2.479l0.885-4.947l0.014,0.049
		l0.135-0.824c0.004,0,0.008,0.015,0.013,0.015c0.821,0.133,1.723-1.231,2.016-3.052s-0.134-3.402-0.955-3.533
		c-0.202-0.033-0.409,0.029-0.613,0.164c0.133-1.619,0.136-2.984,0.025-4.137c0.022-0.209,0.038-0.436,0.045-0.68
		c0.023-0.939,1.069-3.934,0.093-4.701c-0.187-0.146-0.655-0.018-1.011,0.008c-1.899,0.137-3.922-2.062-6.737-2.336
		c-3.514-0.342-7.004,1.58-7.305,3.707c-0.199,0-0.438,0.037-0.722,0.119c-0.862,0.246-1.697,1.541-1.827,3.793
		c-0.143,2.484-0.023,3.664,0.243,4.23c-0.016,0.008-0.031,0.016-0.047,0.023c-0.213-0.152-0.434-0.223-0.649-0.188
		c-0.819,0.133-1.247,1.715-0.953,3.537c0.292,1.82,1.195,3.188,2.016,3.057c0.02-0.004,0.039-0.008,0.057-0.014l0.512,3.135
		l0.498,2.623c0.49,0.926,1.969,1.43,2.976,2.43h-0.741l-0.707,0.404c-0.385,0.904-1.094,2.832-1.817,3.379
		c-0.558,0.17-1.115,0.391-1.675,0.559c0.029,0.014,0.059,0.031,0.088,0.047c-0.094,0.027-0.189,0.058-0.284,0.085
		c-2.123,0.957-4.481,2.101-6.609,3.089c-1.937,0.898-4.257,1.411-4.957,3.647c0,1.398-0.108,4.79-0.099,6.79H68.079z"/>
	<path fill="#027D12" d="M42.109,37.677c-0.7-2.234-3.021-2.647-4.957-3.548c-1.013-0.469-2.079-1.034-3.146-1.54
		c-1.063,0.502-2.125,0.977-3.134,1.443c-1.937,0.9-4.256,1.425-4.956,3.659c0,1.4-0.109,4.801-0.1,6.801h16.391
		C42.219,42.493,42.109,39.076,42.109,37.677z"/>
</g>
</svg>
